<svg id="圖層_1" data-name="圖層 1" xmlns="http://www.w3.org/2000/svg" viewBox="0 0 127.58 68.11"><path d="M12.94,63.79c19.18,7.81,30.3,9.4,43.24,9.2,7.52-.12,21.9-2.95,35.37-5.74,9.59-2,16-11,21.93-18.67,3.57-4.64,12.19-27.91,12.19-27.91C113.52,11.94,93,3.13,76.26,10.88,56.45,20.05,60.93,36.37,47.16,50,37.52,59.47,16.91,62.81,12.94,63.79Z" transform="translate(-11.44 -6.4)" style="fill:none;stroke:#62a9b9;stroke-linecap:round;stroke-linejoin:round;stroke-width:3px"/><path d="M137.52,9.4c-11.47,13.9-18.77,14.5-28.24,20.52-8.26,5.24-31.2,19.69-37.9,24.41C60.14,62.24,46.2,66.94,19.87,66.48" transform="translate(-11.44 -6.4)" style="fill:none;stroke:#62a9b9;stroke-linecap:round;stroke-linejoin:round;stroke-width:3px"/><path d="M61.09,68.31" transform="translate(-11.44 -6.4)" style="fill:none;stroke:#62a9b9;stroke-linecap:round;stroke-linejoin:round;stroke-width:3px"/><path d="M76.26,70c4.55-11.53,5.07-15.6,6.22-23.06" transform="translate(-11.44 -6.4)" style="fill:none;stroke:#62a9b9;stroke-linecap:round;stroke-linejoin:round;stroke-width:3px"/><path d="M91.55,67.25c6.43-12.46,9.39-22.56,10-32.46" transform="translate(-11.44 -6.4)" style="fill:none;stroke:#62a9b9;stroke-linecap:round;stroke-linejoin:round;stroke-width:3px"/><path d="M47.16,50c18.14.8,21-4.63,36.28-3.59" transform="translate(-11.44 -6.4)" style="fill:none;stroke:#62a9b9;stroke-linecap:round;stroke-linejoin:round;stroke-width:3px"/><path d="M68.16,16.17C87,26.45,93.47,26.66,109.28,29.92" transform="translate(-11.44 -6.4)" style="fill:none;stroke:#62a9b9;stroke-linecap:round;stroke-linejoin:round;stroke-width:3px"/><path d="M92.87,8c10.48,5.06,16.41,9.78,24.55,17.47" transform="translate(-11.44 -6.4)" style="fill:none;stroke:#62a9b9;stroke-linecap:round;stroke-linejoin:round;stroke-width:3px"/></svg>