<svg id="Layer_1" data-name="Layer 1" xmlns="http://www.w3.org/2000/svg" viewBox="0 0 348.37 89.02"><defs><style>.cls-1{fill:#62a9b9;}.cls-2{fill:#a0d5bc;}</style></defs><path class="cls-1" d="M39.17,23.66c-.23.31-.47.47-.86.16a2.61,2.61,0,0,1-2.11.62c-.71,0-1.41.4-2.2.16,0,.08-.08.16-.08.24-2.66.15-5.32.23-7.75.39-1-.16-1.88-.24-2.74-.32-.32,0-.47.16-.4.47a13.72,13.72,0,0,0,.47,2.43c-.15.16-.23.32-.31.39a1,1,0,0,0,.16.24c.08.86.15,1.72.23,2.51a1.49,1.49,0,0,1,.08.55,2.07,2.07,0,0,0-.08.7c.08,1,.24,2,.24,3A17.28,17.28,0,0,1,23.74,38c.08.55.08,1.17.16,1.88h-.08c0,.15.08.23.08.31a.28.28,0,0,1-.08.16c.15.86.23,1.64.31,2.43-.08.07-.08.23-.16.31.08.08.16.23.24.31a4.43,4.43,0,0,0-.08,1c0,.16.08.39.08.63a13.48,13.48,0,0,1,.08,1.8c0,.47-.08.94-.08,1.49v.86a.69.69,0,0,0,.08.39,1.29,1.29,0,0,1-.08.94,5.06,5.06,0,0,0,0,1.1v.08a12.31,12.31,0,0,1,.08,1.72,11.33,11.33,0,0,1,.08,1.64,9.25,9.25,0,0,0,0,1.49c0,1-.08,2-.08,3a16.73,16.73,0,0,1-.08,2,3,3,0,0,1-.16,1.49A5.67,5.67,0,0,0,23.82,65a6.31,6.31,0,0,0-.08,1.26,17.23,17.23,0,0,1,.08,2c0,.4.08.79.08,1.1s-.08.55-.08.78a.49.49,0,0,0,0,.47c-.08.24-.08.47-.16.71-.31.31-.39.94-1,1a1.4,1.4,0,0,1-1.33-.24c-.47-.47-1.1-.86-1.57-1.33a2.23,2.23,0,0,1-.54-1.25,29.89,29.89,0,0,1-.4-3.84c-.07-.08,0-.24,0-.31l-.07-.08c0-.71,0-1.41.07-2.12,0-1.17.08-2.27.16-3.37V51.31c0-1.48-.08-3.05-.08-4.62s.16-3.21.08-4.78c0-1.09-.16-2.19-.16-3.36-.07-1.65,0-3.29-.07-4.94,0-1.41-.08-2.9-.16-4.39,0-1.17-.08-2.35-.16-3.52a5.56,5.56,0,0,1,.16-.94,9.63,9.63,0,0,0-1.49.15,10.45,10.45,0,0,0-1.57.16c-.62.08-1.17.08-1.8.16-.78,0-1.49-.08-2.27-.08H10a3.1,3.1,0,0,0-.86,0,4.29,4.29,0,0,1-2-.47A5.15,5.15,0,0,1,5.33,23c-.39-.47-.39-.78,0-1.33,1.1-.15,2.35-.31,3.52-.55,1-.15,2-.47,3.06-.62.86-.08,1.72-.08,2.51-.16.39,0,.7-.08,1.09-.08,1.26,0,2.51-.08,3.76-.08a26.24,26.24,0,0,1,3.45-.07c1.88.15,3.68-.24,5.48-.16s3.37,0,5,.08h2a1.91,1.91,0,0,1,.39.23,1.07,1.07,0,0,0,.94.24c.55-.08,1-.16,1.33-.24a1.66,1.66,0,0,1,.71,1.41,4.35,4.35,0,0,0,.47.94C39.17,23,39.41,23.27,39.17,23.66Zm-6.81.55a3,3,0,0,1-.55-.47,2,2,0,0,0-.31.63C31.81,24.29,32,24.29,32.36,24.21Z" transform="translate(-5.04 -18.08)"/><path class="cls-1" d="M50.61,48.49c-.08,2.75,0,5.49,0,8.15v7.68c0,2.11,0,4.23-.08,6.34a4.32,4.32,0,0,1-.78,2.9,6.9,6.9,0,0,1-1.26.16c-.31-.39-.55-.78-.78-1a5,5,0,0,0-1.1-.47c-.08-.7-.08-1.41-.15-2-.24-1.72-.63-3.44-.87-5.09-.07-1,0-2-.07-2.9-.24-1.72-.08-3.44-.4-5.17a14,14,0,0,1-.31-5.09,7.37,7.37,0,0,0,0-1.33c0-.24.16-.47.16-.78h-.16c-.16-.87.39-1.73-.23-2.43-.16,0-.32.08-.47.08a1.46,1.46,0,0,1-.24.15c-.94-.08-1.88-.15-2.66-.23l-.32.31c.08.08.16.08.24.16V48a2.86,2.86,0,0,0-.86.08,1.25,1.25,0,0,1-.32-.39c-.23.16-.47.24-.7.39a4,4,0,0,0-.55-.39.67.67,0,0,0,.08.39,1.71,1.71,0,0,1-.63.08,1.55,1.55,0,0,0-.15-.39,1.65,1.65,0,0,1-.24.39c-.16-.16-.23-.31-.39-.47-.24.08-.47.16-.78.24a.29.29,0,0,1-.24-.08c-.94.08-.94.39-1,1.56,0,.79-.08,1.65-.08,2.51,0,.08-.15.16-.15.16v.7c0,.63-.08,1.26-.08,1.88-.16,1-.31,2-.39,3.14-.08.86-.16,1.72-.16,2.58-.16,2-.31,4-.47,6-.08,1.57-.16,3.22-.23,4.86a1.2,1.2,0,0,1-.63,1c-.55.23-.86.08-1.33-.47s-.79-1.18-1.18-1.72a5.09,5.09,0,0,1-.39-1.1c-.08-.63,0-1.18-.08-1.8a17.33,17.33,0,0,0-.39-1.73c-.08-.39-.08-.78-.16-1.17V59c0-.23-.07-.55-.07-.86h-.08c0-2.82-.08-5.64-.08-8.46H29.3c0-.24-.16-.55-.08-.71a1.8,1.8,0,0,0,.08-1.56,5.81,5.81,0,0,1,0-2.35c0-.24-.08-.47-.08-.71a5.12,5.12,0,0,0,.63-.47h-.71c0-1.72,0-3.44-.08-5.32,0-.87.08-1.81.08-2.75h.08c-.08-.07-.08-.23-.16-.31.08-.08.16-.16.24-.16-.55-.7-.16-1.41-.31-2.11.15-.08.23-.16.47-.31-.24-.08-.32-.08-.4-.16a.32.32,0,0,1-.07-.24,1.15,1.15,0,0,1,.15-.55c.08-.07.16-.15.24-.15-.16-.31-.32-.55-.47-.86.15-.08.23-.08.31-.16a11.42,11.42,0,0,1-.47-4c-.08-1.33.08-2.66.08-4.07.71-.16.55-.78.63-1.25a3.86,3.86,0,0,1,.62-1.65,7.33,7.33,0,0,1,.4-.78c.31-.24.7-.08,1,.08a10.27,10.27,0,0,0,2,1.09,1.78,1.78,0,0,1,1.25,1.49,38.26,38.26,0,0,1,.55,4.23c.08,1.18,0,2.27,0,3.45.08,1.72.16,3.45.16,5.17v8.7c0,.47.23.7.7.54a.87.87,0,0,1,.08.4,7.88,7.88,0,0,0,1.41-.08c.24.15.32.23.47.31l.24-.23a3.94,3.94,0,0,0-.86-.47c1-.16,1.95-.24,3-.4a1.1,1.1,0,0,0-.23.32c.15.15.23.39.39.55a1.12,1.12,0,0,1,.55-.16L41.13,44h-.47c.08-.23.08-.47.16-.55,1.09-.08,2.19-.23,3.36-.31a1.87,1.87,0,0,1-.54.31h1c.08-.7.08-1.41.16-2.11,0-.24.08-.47.08-.79,0-1.25.08-2.58.08-3.91.08-1.57.15-3.14.23-4.7.08-.08.08-.08.08-.24h.31v-.31h-.31c-.08-.47-.08-.94-.16-1.49a.83.83,0,0,0,.32-.08,2.42,2.42,0,0,1-.24-.7,15,15,0,0,1-.15-1.88c0-.71.07-1.34.07-2V22.09c.32.08.47.08.71.16a.85.85,0,0,1,.08-.47c-.24,0-.39.08-.55.08a.08.08,0,0,0-.08-.08l.47-.7-.16-.16a5.29,5.29,0,0,1,.47-1.25c.4.31.79.47,1.1.7a.83.83,0,0,0,.39.08c.71-.16,1.1.31,1.88.63.47.07.71.7.94,1.25a18.93,18.93,0,0,1,.24,2.11c.08,1.49.15,2.9.15,4.31.08,1.1,0,2.27,0,3.37s.16,2.43.16,3.68-.16,2.43-.16,3.69C50.69,42.46,50.61,45.52,50.61,48.49ZM29.93,28.6c-.16-.08-.24-.16-.39-.24-.08.08-.16.08-.32.16.08.15.08.31.16.47A4.67,4.67,0,0,0,29.93,28.6Zm-.55-5.1.47.47a1.2,1.2,0,0,0,.63.16c0,.24-.08.47-.08.71.15-.08.31-.08.47-.16a.59.59,0,0,0,.15-.31,1.81,1.81,0,0,0,.63.47c.47.07.78.23.86.78a1.12,1.12,0,0,1-.39-.24,4.93,4.93,0,0,1-.31.55,1.72,1.72,0,0,1,.55-.08.4.4,0,0,0,.15.24c.32-.24.55-.39.86-.63-.07-.08-.07-.23-.15-.31l-.47.23a1.46,1.46,0,0,0-.08-.62c-.39-.08-.78-.24-1.25-.32a1.12,1.12,0,0,1,.07-.47,4.61,4.61,0,0,0-.54.16c-.08-.16-.16-.23-.24-.39-.08,0-.23.08-.31.08l-.32-.32a3.7,3.7,0,0,1,.08-.39.08.08,0,0,0-.08-.08.94.94,0,0,1-.23.32A1.08,1.08,0,0,1,29.38,23.5Zm0,17.24c.16.39.23.63.39.94h.16a2.3,2.3,0,0,0-.24-.86,5.08,5.08,0,0,1,.63.47,1.54,1.54,0,0,0,.23-.39C30.16,40.82,29.77,40.82,29.38,40.74Zm.39-13.08h-.23a2.13,2.13,0,0,1-.08.62,2,2,0,0,0,.55-.23A1.47,1.47,0,0,0,29.77,27.66Zm-.23,7.6c.23.07.47.23.7.31h.08a3.87,3.87,0,0,0-.55-.63A.94.94,0,0,0,29.54,35.26Zm.15-1.81h.24a2.69,2.69,0,0,1,.39-.54c-.08,0-.08-.08-.16-.08S30,33,29.93,33s-.16-.07-.32-.15C29.61,33.06,29.69,33.3,29.69,33.45ZM30,43a.28.28,0,0,0,.15-.08c-.08-.31-.23-.55-.31-.86a.25.25,0,0,1-.16.08A3.76,3.76,0,0,0,30,43Zm.86-5.25-.08-.15c-.31-.16-.63-.24-1-.4a11.23,11.23,0,0,1,.94,1A.65.65,0,0,0,30.87,37.76Zm-.94-16.29c.15.08.31.23.39.23.08.32.23.63.31.94a1.26,1.26,0,0,0,.47-.23,6.49,6.49,0,0,1-.55-.86c.16-.16.32-.24.47-.4h-.47c-.07.08-.07.16-.15.24h-.47Zm.47,17.7h-.47c.23.32.47.63.7.94a.16.16,0,0,1,.16-.15A4.13,4.13,0,0,0,30.4,39.17ZM30.55,54a8.35,8.35,0,0,0-.31-.94c-.08.15-.16.23-.16.31l.24.71A.26.26,0,0,0,30.55,54Zm.08-7.84a2,2,0,0,0-.15-.62.29.29,0,0,0-.24.08,1.78,1.78,0,0,1,.16.62A.27.27,0,0,0,30.63,46.14Zm-.31-23.42c.16.39.23.63.31.86h.16c0-.15.08-.39.08-.62A4.27,4.27,0,0,0,30.32,22.72Zm.39,7.21a8.1,8.1,0,0,1,.31-1,1.28,1.28,0,0,1-.62-.08A5.67,5.67,0,0,0,30.71,29.93ZM31,33.77a.28.28,0,0,0,.16-.08,5.39,5.39,0,0,1-.23-.86c-.08.23-.24.31-.24.39S31,33.61,31,33.77Zm-.31,8.46a1.23,1.23,0,0,1,.47.15,1.14,1.14,0,0,0-.16-.47,1.93,1.93,0,0,1,.71.32c.08-.08.23-.08.39-.16-.16-.23-.23-.47-.39-.7-.08.15-.24.31-.31.47a1.72,1.72,0,0,0-.47-.08,4.61,4.61,0,0,1,.54-.32c-.07-.07-.07-.15-.15-.23-.16.08-.32.08-.47.16A4.08,4.08,0,0,1,30.71,42.23Zm.78,5.64a2.93,2.93,0,0,0-.47-.55.07.07,0,0,1-.07.08,2.39,2.39,0,0,0,.31.7Zm-.47-27a7.32,7.32,0,0,1,.71.39v.32c.16-.08.31-.08.39-.16l-.47-.94c-.08.08-.16.08-.16.16A3,3,0,0,1,31,20.84Zm.32-1c.08.16.08.32.15.47s.32-.08.63-.08c-.23-.31-.31-.47-.47-.7Zm.78,22.64h-.63c0,.08,0,.08-.07.16l.7.47Zm-.23-3.91A1.27,1.27,0,0,1,32,38h-.23a1.29,1.29,0,0,0-.24.78c0,.08.24.24.32.31S31.89,39,32,39A1.32,1.32,0,0,1,31.89,38.55ZM32,33.38a1.69,1.69,0,0,0,.63.31.56.56,0,0,0,.31-.08v-.08c-.23-.08-.47-.23-.7-.31a.67.67,0,0,0-.08-.39c-.16,0-.39.08-.55.08C31.81,33.14,31.89,33.3,32,33.38Zm.24-4.08a2.34,2.34,0,0,1,.08-.78c-.16-.08-.24-.08-.32-.16C31.73,28.75,31.81,29.07,32.28,29.3ZM32,22.09v.08a1.78,1.78,0,0,0,.47.32l.32-.32C32.43,22.17,32.2,22.09,32,22.09Zm.08,12a5.73,5.73,0,0,0,.16.94,2.53,2.53,0,0,1,.31-.39A5.91,5.91,0,0,1,32.2,34C32.12,34,32,34,32,34.08Zm.79,8a.47.47,0,0,1-.32-.08c-.08-.15-.23-.23-.23-.31h-.16v.7A2.44,2.44,0,0,0,32.83,42.07Zm.54-2.9-.07-.08c-.08,0-.16,0-.16.08-.16.24-.39.24-.71.24s-.39.15-.23.47c.08,0,.16.08.31.08s.08-.16.16-.24.16.08.31.08C33.14,39.56,33.22,39.41,33.37,39.17Zm-1.17-.23c0,.08.08.15.23.39a5.83,5.83,0,0,0,.08-1.1c.24,0,.39-.08.71-.08-.16-.15-.24-.23-.32-.23-.31.08-.47.16-.7.23ZM45.91,23.35v.7l.62.24a.62.62,0,0,0,.08-.24c-.15-.31-.31-.62-.39-.78a4.92,4.92,0,0,1,.31-.94C45.91,22.49,45.83,22.8,45.91,23.35Zm1,5.4a2.71,2.71,0,0,1-.4-.62,5.14,5.14,0,0,1-.54.23v.55C46.3,28.83,46.53,28.83,46.93,28.75Zm.39,19.74c-.16,0-.32-.07-.55-.07a5.55,5.55,0,0,0,.16-.55c0-.08-.16-.24-.32-.39a2.57,2.57,0,0,1-.15.78c.07.08.07.23.15.31a2.16,2.16,0,0,0,.71.08ZM47.16,30.4c.08-.63-.08-.86-.63-.79a3.93,3.93,0,0,0,.32.55v.32A.45.45,0,0,0,47.16,30.4Zm0-7.29c-.23-.08-.31-.08-.55-.15.16.15.24.23.39.39a4.21,4.21,0,0,0-.07.94,1.12,1.12,0,0,0,.47.08,5,5,0,0,1,.7-.32v-.47a1,1,0,0,0-.47.08c0-.16,0-.23.08-.31h.23c-.07,0-.07-.08-.07-.08a4.12,4.12,0,0,0,.54-.31,13.85,13.85,0,0,0-1.41-1l-.07.08C47,22.33,47.08,22.72,47.16,23.11Zm.55,2c.16-.16.23-.24.39-.39-.08-.08-.08-.16-.16-.32a2.22,2.22,0,0,1-.7.16v.31a1.19,1.19,0,0,0,.31.24l-.47.23a3.44,3.44,0,0,0,.32.47,1.88,1.88,0,0,0,.62-.07A5.91,5.91,0,0,1,47.71,25.15Zm-.63,6.11c.32-.16.55-.31.94-.47-.23-.16-.39-.31-.47-.31A7.66,7.66,0,0,1,47.08,31.26Zm1.41,3.84v-.16H48a2.08,2.08,0,0,1,.16-.55c-.24-.08-.47-.15-.78-.23a4.93,4.93,0,0,1,.31.55,1.44,1.44,0,0,0-.31.39,1,1,0,0,0,.23.16A5.06,5.06,0,0,1,48.49,35.1Zm.86-12H49c-.08,0-.15-.08-.23-.15l-.24.47A4,4,0,0,0,49,24,3.18,3.18,0,0,0,49.35,23.11Z" transform="translate(-5.04 -18.08)"/><path class="cls-1" d="M63.84,65.65c.47.16.94.31,1.49.55,1.65.63,3.06-.16,4.55-.71.94-.31,1.8-.62,2.66-.94a4.63,4.63,0,0,1,1-.07,1.12,1.12,0,0,0-.08.47c0,.07.08.15.16.23a3.83,3.83,0,0,1-.24.71c.39.39.71.78,1,1.09a1,1,0,0,1,.16,1.18,1,1,0,0,0-.08.47,2.16,2.16,0,0,1-1.25,1.8,11.34,11.34,0,0,1-3.53.94,2.86,2.86,0,0,0-1.57.47A2.77,2.77,0,0,1,67,72a15.1,15.1,0,0,1-1.88-.24,10.19,10.19,0,0,1-4-1.41,4.42,4.42,0,0,0-.62-.31,5.14,5.14,0,0,0-.71-.39c-.16-.24-.39-.47-.63-.79-.15-.08-.23-.31-.39-.39A15.41,15.41,0,0,1,57,65.89a8.93,8.93,0,0,1-.86-2.82,10.4,10.4,0,0,1-.47-3.77c.08-1.25.16-2.58.23-3.83,0-.4-.07-.79-.07-1.18,0-1.33.07-2.58.07-3.92.08-2.27.08-4.46.16-6.65.08-1.65.16-3.22.24-4.78q.22-3.06.47-6.11c.07-1.33.15-2.67.31-4,.23-2.11.47-4.15.78-6.19.08-.62.24-1.25.32-2a2,2,0,0,1,1.72-1.41c.47-.07,1-.07,1.49-.15a18.93,18.93,0,0,1,2.11-.24c1-.08,2-.08,3.06-.08.23,0,.55-.07.78-.07a16,16,0,0,1,2,0c.94.07,1.88.31,2.82.39l.94.23c.16.08.39.16.39.32.24.54.71.47,1.1.54s.7.16,1.17.24a3.84,3.84,0,0,1-.15.55.08.08,0,0,1-.08-.08l-.71.7.08.08a2.22,2.22,0,0,1-.7.16.48.48,0,0,1-.32-.08v.16a3.17,3.17,0,0,1-.86.15,16.5,16.5,0,0,0-2.66.4,9.13,9.13,0,0,1-1.33.31,3.46,3.46,0,0,1-.4-.08,12.18,12.18,0,0,1-2.81.16c-1,.15-1.73.31-2.51.47a.46.46,0,0,0-.47.62,9.77,9.77,0,0,1-.32,3c-.07.47-.07.94-.15,1.41s-.08.86-.16,1.33c0,.24.16.47.16.63a10.33,10.33,0,0,1,.08,1.57c.07.78.15,1.56.15,2.42,0,.4-.15.79-.15,1.18,0,.55.07,1.1.07,1.65,0,.15-.07.31,0,.47V41c0,.32-.07.71-.07.87-.4.62-.63,0-.94,0,.07.7.62.78,1.09.94a1.12,1.12,0,0,0,.47.07c1.18-.15,2.43-.47,3.61-.54a11.33,11.33,0,0,1,2.27.07c1,.08,2,.16,2.9.32l2.19.47a.79.79,0,0,1-.31,1,3,3,0,0,0-.55.86l-.47.47c0,.08.08.23.08.31v.08c-.55.39-.86,1-1.65,1.25s-1.49,0-2.27.24a13.62,13.62,0,0,1-5,.08H62.43a2.52,2.52,0,0,0-.54.47.62.62,0,0,1,.07.31h-.07c0,.63.07,1.17.07,1.8,0,.08.08.16.08.24H62c.08,2.27.16,4.54.24,7,.39.31.23.86.16,1.41.07.08.07.15.15.23v2.2h.16a1.14,1.14,0,0,0,.16.47,21.32,21.32,0,0,0,.31,2.35,7.5,7.5,0,0,0,.39,1.25c.08.08,0,.24,0,.24C63.69,65.57,63.77,65.65,63.84,65.65Zm-3.68-23.5c-.15-.24-.31-.47-.47-.78a.56.56,0,0,0-.08.31,4.6,4.6,0,0,0,.47.55Zm.16,22.33c.08.07.23.23.39.39l.08-.08a2.94,2.94,0,0,0,.55.23.28.28,0,0,1,.08-.23.4.4,0,0,0-.24-.08c-.16-.08-.16-.23-.23-.31a.32.32,0,0,1,.07-.24C60.79,64.24,60.55,64.4,60.32,64.48Zm2.9.86V65.1c-.16-.15-.32-.23-.47-.39-.08.24-.16.47-.24.78C62.75,65.42,63,65.42,63.22,65.34Z" transform="translate(-5.04 -18.08)"/><path class="cls-1" d="M125.81,50.45c-.24,2.51-.71,5-1,7.52a20.39,20.39,0,0,1-1.57,5.64c-.55,1.34-1,2.67-1.57,3.92a4.17,4.17,0,0,1-1.8,2.19c-.47.32-.78.79-1.25,1.1a4.73,4.73,0,0,1-2.66,1.33,9.34,9.34,0,0,1-3.29-.15,12.22,12.22,0,0,1-3.92-1.57A8,8,0,0,1,107,69c-.7-.86-1.25-2-1.88-2.9-.39-.63-.62-1.33-1-2a.08.08,0,0,0-.08-.08c-.39-1.33-.86-2.66-1.26-4-.15-.31-.23-.63-.39-.94a9.88,9.88,0,0,1-.86-2.66c-.08-.4-.39-.79-.47-1.18-.39-1-.63-2-.94-3.06a2.82,2.82,0,0,1-.23-.54c.07-.08.15-.08.23-.16-.16-.86-.78-1.65-.47-2.74a1.15,1.15,0,0,0-.16-.24,2.61,2.61,0,0,1,.47-.15,1.92,1.92,0,0,1-.54-.32c.07-1.33.07-2.74.15-4.23,0-.55-.62-1.17-.08-1.88-.07,0-.07-.08-.15-.15s0-.08.08-.16l.07-.08a.87.87,0,0,1,.4.08l-.32-.31a3.46,3.46,0,0,0,.08-.4c-.08-.07-.16-.07-.23-.15v-.55a.56.56,0,0,0,.31.08v.47a1.49,1.49,0,0,0,.55-.16c-.16-.16-.16-.23-.32-.31.08-.08.16-.24.24-.32-.08-.39-.08-.78.55-.94v-.31h.08c.07-.47.07-.86.15-1.33-.31-.08-.62-.16-.86-.24-.08.08-.08.16-.16.16.16.24.32.39.47.63a1,1,0,0,1-.39.08c-.55-.47-.23-1-.15-1.49a6.48,6.48,0,0,1,.23-1.8c.08-.48.31-.94.39-1.41s.16-.87.32-1.34c.23-.86.47-1.8.78-2.66.16-.47.39-.86.55-1.33a18,18,0,0,1,1.17-2.12,16.44,16.44,0,0,1,1.41-1.8A4.66,4.66,0,0,1,106,22.88a4,4,0,0,1,2.19-.47,5.24,5.24,0,0,0,1.57-.16,12.3,12.3,0,0,1,4.15,0,18,18,0,0,1,4.39,1.57,9.87,9.87,0,0,1,4.7,6c.54,2,1.17,4,1.72,5.95.31,1.49.55,3,.78,4.47.24,1.72.39,3.52.47,5.25A35.32,35.32,0,0,1,125.81,50.45ZM99.41,40.19c.07-.55.15-.94.23-1.33v.31c.08,0,.16.08.24.08a1.71,1.71,0,0,0,.07.55A5,5,0,0,0,99.41,40.19Zm.78-1.25a4.85,4.85,0,0,1-.55-.16.83.83,0,0,1,.08-.39h.39C100.11,38.55,100.19,38.7,100.19,38.94Zm-.55-.08v0Zm1.1-2.19a3.61,3.61,0,0,0-.63.39.08.08,0,0,0,.08.08c.08,0,.16-.08.23-.16s.16.08.32.16Zm20.13,8.53c0-.78.08-1.56.08-2.42a3.28,3.28,0,0,1-.24-2.12,15.48,15.48,0,0,1-.07-1.8v-.78c-.08-.32-.08-.55-.16-.87a10.05,10.05,0,0,0-.78-3.44c-.32-.71-.63-1.33-.87-2-.39-1-.78-2-1.09-3l-.24-.47.08-.08a15.78,15.78,0,0,0-1.33-1.8,4.62,4.62,0,0,0-3.37-2.11.58.58,0,0,0-.39.15,16.62,16.62,0,0,0-1.72,2.35,11,11,0,0,0-1.49,4.47c-.4,2-.79,3.84-1.26,5.8a22.7,22.7,0,0,0-.62,8c.07.78,0,1.48,0,2.27,0,1-.08,2,0,3.05a39.64,39.64,0,0,0,.86,4.23c.39,1.57.86,3.22,1.33,4.86a9.45,9.45,0,0,0,1.57,3.53c.78,1.09,1.64,2.11,2.43,3.21.23.31.47.55.86.23,0,.24.08.32.08.55.23,0,.47.08.54-.08a16.77,16.77,0,0,0,1.73-1.64,5.16,5.16,0,0,0,.55-.63.24.24,0,0,1,.15.08c.08-.39.16-.78.24-1.33,1-.79.94-2.27,1.56-3.45.08-.16.16-.39.24-.55.16-.63.39-1.17.63-1.88l.15-.16a18.61,18.61,0,0,1-.08-2.11V54c.08-.86.08-1.65.08-2.51a7.39,7.39,0,0,0,0-1.33,5.79,5.79,0,0,1,.24-2.82,5.67,5.67,0,0,0,.31-1,5.05,5.05,0,0,0,.08-1.1Zm.86-3.29c-.08-.39-.08-.86-.15-1.25h-.08v.24c-.16.39-.24.62-.39.94a1,1,0,0,1,.31.23C121.5,42,121.65,42,121.73,41.91Z" transform="translate(-5.04 -18.08)"/><path class="cls-1" d="M160.59,23.66c-.24.31-.47.47-.87.16a2.6,2.6,0,0,1-2.11.62c-.71,0-1.41.4-2.19.16,0,.08-.08.16-.08.24-2.67.15-5.33.23-7.76.39-1-.16-1.88-.24-2.74-.32-.31,0-.47.16-.39.47a12.87,12.87,0,0,0,.47,2.43c-.16.16-.24.32-.32.39a1,1,0,0,0,.16.24c.08.86.16,1.72.24,2.51a1.68,1.68,0,0,1,.07.55,2.35,2.35,0,0,0-.07.7c.07,1,.23,2,.23,3a17.28,17.28,0,0,1-.08,2.82c.08.55.08,1.17.16,1.88h-.08c0,.15.08.23.08.31a.28.28,0,0,1-.08.16c.16.86.24,1.64.31,2.43-.07.07-.07.23-.15.31.08.08.15.23.23.31a4.43,4.43,0,0,0-.08,1c0,.16.08.39.08.63a13.48,13.48,0,0,1,.08,1.8c0,.47-.08.94-.08,1.49v.86a.69.69,0,0,0,.08.39,1.29,1.29,0,0,1-.08.94,5.06,5.06,0,0,0,0,1.1v.08a12.31,12.31,0,0,1,.08,1.72,11.33,11.33,0,0,1,.08,1.64,9.25,9.25,0,0,0,0,1.49c0,1-.08,2-.08,3a16.73,16.73,0,0,1-.08,2,3.11,3.11,0,0,1-.15,1.49,5.45,5.45,0,0,0-.24,1.95,6.31,6.31,0,0,0-.08,1.26,17.23,17.23,0,0,1,.08,2c0,.4.08.79.08,1.1s-.08.55-.08.78a.49.49,0,0,0,0,.47c-.08.24-.08.47-.16.71-.31.31-.39.94-1,1a1.42,1.42,0,0,1-1.34-.24c-.47-.47-1.09-.86-1.56-1.33a2.24,2.24,0,0,1-.55-1.25,29.9,29.9,0,0,1-.39-3.84c-.08-.08,0-.24,0-.31l-.08-.08a18.78,18.78,0,0,1,.08-2.12c0-1.17.08-2.27.15-3.37V51.31c0-1.48-.07-3.05-.07-4.62s.15-3.21.07-4.78c0-1.09-.15-2.19-.15-3.36-.08-1.65,0-3.29-.08-4.94,0-1.41-.08-2.9-.16-4.39,0-1.17-.08-2.35-.15-3.52a5.38,5.38,0,0,1,.15-.94,9.63,9.63,0,0,0-1.49.15,10.45,10.45,0,0,0-1.56.16c-.63.08-1.18.08-1.8.16-.79,0-1.49-.08-2.28-.08h-1.48a3.17,3.17,0,0,0-.87,0,4.32,4.32,0,0,1-2-.47,5.15,5.15,0,0,1-1.8-1.65c-.39-.47-.39-.78,0-1.33,1.1-.15,2.35-.31,3.53-.55,1-.15,2-.47,3-.62s1.73-.08,2.51-.16c.39,0,.71-.08,1.1-.08,1.25,0,2.5-.08,3.76-.08a26.05,26.05,0,0,1,3.44-.07c1.88.15,3.69-.24,5.49-.16,1.64,0,3.37,0,5,.08h2a1.67,1.67,0,0,1,.39.23,1.07,1.07,0,0,0,.94.24c.55-.08,1-.16,1.33-.24A1.66,1.66,0,0,1,160,21.7a4.86,4.86,0,0,0,.47.94C160.59,23,160.82,23.27,160.59,23.66Zm-6.82.55a3.83,3.83,0,0,1-.55-.47,2.29,2.29,0,0,0-.31.63C153.22,24.29,153.46,24.29,153.77,24.21Z" transform="translate(-5.04 -18.08)"/><path class="cls-1" d="M184.24,48.49c-.08,2.75,0,5.49,0,8.15v7.68c0,2.11,0,4.23-.08,6.34a4.32,4.32,0,0,1-.78,2.9,6.69,6.69,0,0,1-1.25.16c-.32-.39-.55-.78-.79-1a4.91,4.91,0,0,0-1.09-.47c-.08-.7-.08-1.41-.16-2-.24-1.72-.63-3.44-.86-5.09-.08-1,0-2-.08-2.9-.24-1.72-.08-3.44-.39-5.17a13.78,13.78,0,0,1-.32-5.09,7.37,7.37,0,0,0,0-1.33c0-.24.16-.47.16-.78h-.16c-.15-.87.4-1.73-.23-2.43-.16,0-.31.08-.47.08a1.46,1.46,0,0,1-.24.15c-.94-.08-1.88-.15-2.66-.23l-.31.31c.08.08.15.08.23.16V48a2.89,2.89,0,0,0-.86.08,1.21,1.21,0,0,1-.31-.39c-.24.16-.47.24-.71.39a3.43,3.43,0,0,0-.55-.39.67.67,0,0,0,.08.39,1.66,1.66,0,0,1-.62.08,1.32,1.32,0,0,0-.16-.39,1.65,1.65,0,0,1-.24.39c-.15-.16-.23-.31-.39-.47-.23.08-.47.16-.78.24a.29.29,0,0,1-.24-.08c-.94.08-.94.39-1,1.56,0,.79-.07,1.65-.07,2.51,0,.08-.16.16-.16.16v.7c0,.63-.08,1.26-.08,1.88-.15,1-.31,2-.39,3.14-.08.86-.16,1.72-.16,2.58-.15,2-.31,4-.47,6-.08,1.57-.15,3.22-.23,4.86a1.2,1.2,0,0,1-.63,1c-.55.23-.86.08-1.33-.47s-.78-1.18-1.18-1.72a5.09,5.09,0,0,1-.39-1.1c-.08-.63,0-1.18-.08-1.8a14.92,14.92,0,0,0-.39-1.73c-.08-.39-.08-.78-.15-1.17V59c0-.23-.08-.55-.08-.86h-.08c0-2.82-.08-5.64-.08-8.46h-.08c0-.24-.15-.55-.08-.71a1.8,1.8,0,0,0,.08-1.56,6,6,0,0,1,0-2.35c0-.24-.08-.47-.08-.71a5.12,5.12,0,0,0,.63-.47h-.7c0-1.72,0-3.44-.08-5.32,0-.87.08-1.81.08-2.75h.07c-.07-.07-.07-.23-.15-.31.08-.08.15-.16.23-.16-.55-.7-.15-1.41-.31-2.11.16-.08.23-.16.47-.31-.24-.08-.31-.08-.39-.16a.29.29,0,0,1-.08-.24,1.15,1.15,0,0,1,.16-.55c.07-.07.15-.15.23-.15-.16-.31-.31-.55-.47-.86.16-.08.24-.08.31-.16a11.66,11.66,0,0,1-.47-4c-.07-1.33.08-2.66.08-4.07.71-.16.55-.78.63-1.25a3.75,3.75,0,0,1,.63-1.65,5.62,5.62,0,0,1,.39-.78c.31-.24.7-.08,1,.08a9.93,9.93,0,0,0,2,1.09,1.81,1.81,0,0,1,1.26,1.49,38.22,38.22,0,0,1,.54,4.23c.08,1.18,0,2.27,0,3.45.08,1.72.16,3.45.16,5.17v8.7c0,.47.24.7.71.54a.87.87,0,0,1,.08.4,7.77,7.77,0,0,0,1.4-.08c.24.15.32.23.48.31a2.5,2.5,0,0,1,.23-.23,3.72,3.72,0,0,0-.86-.47c1-.16,2-.24,3-.4a1.1,1.1,0,0,0-.24.32c.16.15.24.39.39.55a1.15,1.15,0,0,1,.55-.16l-.08-.08h-.47c.08-.23.08-.47.16-.55,1.1-.08,2.19-.23,3.37-.31a2.06,2.06,0,0,1-.55.31h1c.08-.7.08-1.41.15-2.11,0-.24.08-.47.08-.79,0-1.25.08-2.58.08-3.91l.24-4.7c.07-.08.07-.08.07-.24h.32v-.31h-.32c-.07-.47-.07-.94-.15-1.49a.81.81,0,0,0,.31-.08,2.39,2.39,0,0,1-.23-.7,15.06,15.06,0,0,1-.16-1.88c0-.71.08-1.34.08-2V22.09c.31.08.47.08.7.16a.85.85,0,0,1,.08-.47c-.23,0-.39.08-.55.08a.08.08,0,0,0-.08-.08l.47-.7-.15-.16a4.88,4.88,0,0,1,.47-1.25c.39.31.78.47,1.09.7a.87.87,0,0,0,.4.08c.7-.16,1.09.31,1.88.63.47.07.7.7.94,1.25.15.7.15,1.41.23,2.11.08,1.49.16,2.9.16,4.31.08,1.1,0,2.27,0,3.37s.15,2.43.15,3.68-.15,2.43-.15,3.69C184.32,42.46,184.24,45.52,184.24,48.49ZM163.56,28.6c-.16-.08-.24-.16-.39-.24-.08.08-.16.08-.32.16.08.15.08.31.16.47A4,4,0,0,0,163.56,28.6ZM163,23.5l.47.47a1.2,1.2,0,0,0,.63.16c0,.24-.08.47-.08.71.16-.08.31-.08.47-.16a.62.62,0,0,0,.16-.31,1.7,1.7,0,0,0,.62.47c.47.07.79.23.87.78a1.07,1.07,0,0,1-.4-.24,3.72,3.72,0,0,1-.31.55,1.72,1.72,0,0,1,.55-.08c0,.08.08.16.16.24.31-.24.54-.39.86-.63-.08-.08-.08-.23-.16-.31l-.47.23a1.46,1.46,0,0,0-.08-.62c-.39-.08-.78-.24-1.25-.32a1,1,0,0,1,.08-.47,4.3,4.3,0,0,0-.55.16c-.08-.16-.16-.23-.24-.39-.08,0-.23.08-.31.08l-.31-.32c0-.15.07-.31.07-.39a.07.07,0,0,0-.07-.08,1.1,1.1,0,0,1-.24.32A1.08,1.08,0,0,1,163,23.5Zm0,17.24c.16.39.24.63.39.94h.16a2.3,2.3,0,0,0-.24-.86,5.08,5.08,0,0,1,.63.47,1.89,1.89,0,0,0,.24-.39C163.79,40.82,163.4,40.82,163,40.74Zm.39-13.08h-.23a2.13,2.13,0,0,1-.08.62,2,2,0,0,0,.55-.23A1.47,1.47,0,0,0,163.4,27.66Zm-.23,7.6c.23.07.47.23.7.31H164a3.87,3.87,0,0,0-.55-.63A1.1,1.1,0,0,0,163.17,35.26Zm.15-1.81h.24a3.15,3.15,0,0,1,.39-.54c-.08,0-.08-.08-.16-.08a.36.36,0,0,1-.23.15c-.08,0-.16-.07-.31-.15C163.25,33.06,163.32,33.3,163.32,33.45Zm.32,9.56a.24.24,0,0,0,.15-.08c-.07-.31-.23-.55-.31-.86a.25.25,0,0,1-.16.08A3.76,3.76,0,0,0,163.64,43Zm.86-5.25-.08-.15c-.31-.16-.63-.24-1-.4a11.23,11.23,0,0,1,.94,1A.65.65,0,0,0,164.5,37.76Zm-.94-16.29c.16.08.31.23.39.23.08.32.24.63.31.94a1.18,1.18,0,0,0,.47-.23,5.51,5.51,0,0,1-.54-.86c.15-.16.31-.24.47-.4h-.47c-.08.08-.08.16-.16.24h-.47Zm.47,17.7h-.47c.23.32.47.63.7.94a.16.16,0,0,1,.16-.15A3.62,3.62,0,0,0,164,39.17ZM164.19,54c-.08-.24-.16-.55-.32-.94-.08.15-.15.23-.15.31.07.24.15.47.23.71A.29.29,0,0,0,164.19,54Zm.07-7.84a1.76,1.76,0,0,0-.15-.62.29.29,0,0,0-.24.08,1.78,1.78,0,0,1,.16.62A.26.26,0,0,0,164.26,46.14ZM164,22.72a9,9,0,0,1,.31.86h.16c0-.15.08-.39.08-.62A3.73,3.73,0,0,0,164,22.72Zm.39,7.21a6.86,6.86,0,0,1,.32-1,1.33,1.33,0,0,1-.63-.08A6.47,6.47,0,0,0,164.34,29.93Zm.32,3.84a.28.28,0,0,0,.15-.08,6.72,6.72,0,0,1-.23-.86c-.08.23-.24.31-.24.39S164.58,33.61,164.66,33.77Zm-.32,8.46a1.18,1.18,0,0,1,.47.15,1.28,1.28,0,0,0-.15-.47,1.88,1.88,0,0,1,.7.32c.08-.08.24-.08.39-.16-.15-.23-.23-.47-.39-.7-.08.15-.23.31-.31.47a1.72,1.72,0,0,0-.47-.08,3.93,3.93,0,0,1,.55-.32c-.08-.07-.08-.15-.16-.23-.16.08-.31.08-.47.16A4.08,4.08,0,0,1,164.34,42.23Zm.79,5.64a3.92,3.92,0,0,0-.47-.55.08.08,0,0,1-.08.08,2.68,2.68,0,0,0,.31.7Zm-.47-27a7.06,7.06,0,0,1,.7.39v.32c.16-.08.31-.08.39-.16l-.47-.94c-.08.08-.15.08-.15.16A4.15,4.15,0,0,1,164.66,20.84Zm.31-1c.08.16.08.32.16.47a6.14,6.14,0,0,1,.62-.08c-.23-.31-.31-.47-.47-.7Zm.78,22.64h-.62c0,.08,0,.08-.08.16l.7.47Zm-.23-3.91a1.12,1.12,0,0,1,.08-.55h-.24a1.28,1.28,0,0,0-.23.78c0,.08.23.24.31.31s.08-.07.16-.07A1.17,1.17,0,0,1,165.52,38.55Zm.15-5.17a1.77,1.77,0,0,0,.63.31.56.56,0,0,0,.31-.08v-.08c-.23-.08-.46-.23-.7-.31a.67.67,0,0,0-.08-.39c-.16,0-.39.08-.55.08C165.44,33.14,165.52,33.3,165.67,33.38Zm.24-4.08a2.34,2.34,0,0,1,.08-.78c-.16-.08-.24-.08-.32-.16C165.36,28.75,165.44,29.07,165.91,29.3Zm-.31-7.21v.08a1.51,1.51,0,0,0,.47.32l.31-.32C166.07,22.17,165.83,22.09,165.6,22.09Zm.07,12a5.73,5.73,0,0,0,.16.94,2.4,2.4,0,0,1,.32-.39,4.69,4.69,0,0,1-.32-.63C165.75,34,165.67,34,165.67,34.08Zm.79,8c-.24,0-.31-.08-.31-.08s-.24-.23-.24-.31h-.16v.7A2.44,2.44,0,0,0,166.46,42.07Zm.55-2.9-.08-.08c-.08,0-.16,0-.16.08-.16.24-.39.24-.7.24s-.4.15-.24.47c.08,0,.16.08.32.08s.07-.16.15-.24.16.08.31.08C166.77,39.56,166.85,39.41,167,39.17Zm-1.18-.23c0,.08.08.15.24.39a5.83,5.83,0,0,0,.08-1.1c.23,0,.39-.08.7-.08-.16-.15-.24-.23-.31-.23-.32.08-.47.16-.71.23Zm13.71-15.59v.7c.24.08.39.16.63.24a.62.62,0,0,0,.08-.24l-.4-.78a4.35,4.35,0,0,1,.32-.94C179.54,22.49,179.46,22.8,179.54,23.35Zm1,5.4a2.65,2.65,0,0,1-.39-.62c-.16.07-.32.15-.55.23v.55C179.93,28.83,180.17,28.83,180.56,28.75ZM181,48.49c-.16,0-.31-.07-.55-.07a5.55,5.55,0,0,0,.16-.55c0-.08-.16-.24-.31-.39a2.3,2.3,0,0,1-.16.78c.08.08.08.23.16.31a2.1,2.1,0,0,0,.7.08Zm-.16-18.09c.08-.63-.07-.86-.62-.79a3.72,3.72,0,0,0,.31.55v.32C180.56,30.48,180.72,30.48,180.79,30.4Zm0-7.29c-.23-.08-.31-.08-.54-.15l.39.39a3.7,3.7,0,0,0-.08.94,1.15,1.15,0,0,0,.47.08,5,5,0,0,1,.7-.32v-.47a1,1,0,0,0-.47.08c0-.16,0-.23.08-.31h.24a.08.08,0,0,1-.08-.08,5.15,5.15,0,0,0,.55-.31,13.85,13.85,0,0,0-1.41-1l-.08.08C180.64,22.33,180.72,22.72,180.79,23.11Zm.55,2,.39-.39c-.07-.08-.07-.16-.15-.32a2.28,2.28,0,0,1-.71.16v.31a1.1,1.1,0,0,0,.32.24l-.47.23a2.84,2.84,0,0,0,.31.47,2,2,0,0,0,.63-.07A4.69,4.69,0,0,1,181.34,25.15Zm-.62,6.11a9.12,9.12,0,0,1,.94-.47,2.4,2.4,0,0,0-.47-.31C181,30.71,181,31,180.72,31.26Zm1.41,3.84v-.16h-.47a2,2,0,0,1,.15-.55c-.23-.08-.47-.15-.78-.23a3.72,3.72,0,0,1,.31.55,1.66,1.66,0,0,0-.31.39,1.2,1.2,0,0,0,.23.16A5.14,5.14,0,0,1,182.13,35.1Zm.86-12h-.39c-.08,0-.16-.08-.24-.15-.08.15-.16.31-.23.47a3.44,3.44,0,0,0,.54.54A3.59,3.59,0,0,0,183,23.11Z" transform="translate(-5.04 -18.08)"/><path class="cls-1" d="M197.48,65.65c.47.16.94.31,1.49.55,1.64.63,3.05-.16,4.54-.71.94-.31,1.8-.62,2.66-.94a4.67,4.67,0,0,1,1-.07,1.12,1.12,0,0,0-.08.47c0,.07.08.15.16.23a5,5,0,0,1-.23.71c.39.39.7.78,1,1.09a1,1,0,0,1,.16,1.18,1,1,0,0,0-.08.47,2.16,2.16,0,0,1-1.25,1.8,11.27,11.27,0,0,1-3.53.94,2.83,2.83,0,0,0-1.56.47,2.84,2.84,0,0,1-1.18.16,15.35,15.35,0,0,1-1.88-.24,10.08,10.08,0,0,1-4-1.41,4.46,4.46,0,0,0-.63-.31,4.62,4.62,0,0,0-.71-.39c-.15-.24-.39-.47-.62-.79-.16-.08-.24-.31-.39-.39a14.9,14.9,0,0,1-1.81-2.58,9.48,9.48,0,0,1-.86-2.82,10.4,10.4,0,0,1-.47-3.77c.08-1.25.16-2.58.24-3.83,0-.4-.08-.79-.08-1.18,0-1.33.08-2.58.08-3.92.08-2.27.08-4.46.15-6.65.08-1.65.16-3.22.24-4.78.16-2,.31-4.08.47-6.11.08-1.33.16-2.67.31-4,.24-2.11.47-4.15.79-6.19.07-.62.23-1.25.31-2a2,2,0,0,1,1.72-1.41c.47-.07,1-.07,1.49-.15a19.1,19.1,0,0,1,2.12-.24c1-.08,2-.08,3-.08.24,0,.55-.07.78-.07a16,16,0,0,1,2,0c.94.07,1.88.31,2.82.39l.94.23c.16.08.4.16.4.32.23.54.7.47,1.09.54s.71.16,1.18.24a5.55,5.55,0,0,1-.16.55.08.08,0,0,1-.08-.08l-.7.7.08.08a2.28,2.28,0,0,1-.71.16.45.45,0,0,1-.31-.08v.16a3.31,3.31,0,0,1-.86.15,16.45,16.45,0,0,0-2.67.4,9.13,9.13,0,0,1-1.33.31,3.22,3.22,0,0,1-.39-.08,12.3,12.3,0,0,1-2.82.16c-.94.15-1.73.31-2.51.47a.46.46,0,0,0-.47.62,9.76,9.76,0,0,1-.31,3c-.08.47-.08.94-.16,1.41s-.08.86-.16,1.33c0,.24.16.47.16.63a10.33,10.33,0,0,1,.08,1.57,23,23,0,0,1,.16,2.42c0,.4-.16.79-.16,1.18,0,.55.08,1.1.08,1.65,0,.15-.08.31,0,.47V41c0,.32-.08.71-.08.87-.39.62-.63,0-.94,0,.08.7.63.78,1.1.94a1.08,1.08,0,0,0,.47.07c1.17-.15,2.42-.47,3.6-.54a11.3,11.3,0,0,1,2.27.07c1,.08,2,.16,2.9.32l2.19.47a.79.79,0,0,1-.31,1,3.25,3.25,0,0,0-.55.86l-.47.47c0,.08.08.23.08.31v.08c-.55.39-.86,1-1.64,1.25s-1.49,0-2.28.24a13.62,13.62,0,0,1-5,.08h-1.33a2.55,2.55,0,0,0-.55.47.56.56,0,0,1,.08.31h-.08c0,.63.08,1.17.08,1.8,0,.08.08.16.08.24h-.08c.08,2.27.15,4.54.23,7,.39.31.24.86.16,1.41.08.08.08.15.16.23v2.2h.15a1.14,1.14,0,0,0,.16.47c.08.78.16,1.56.31,2.35a7.55,7.55,0,0,0,.4,1.25c.07.08,0,.24,0,.24C197.32,65.57,197.4,65.65,197.48,65.65Zm-3.68-23.5a6.18,6.18,0,0,1-.47-.78.56.56,0,0,0-.08.31,3.29,3.29,0,0,0,.47.55ZM194,64.48c.08.07.24.23.39.39l.08-.08A3.26,3.26,0,0,0,195,65a.28.28,0,0,1,.08-.23.4.4,0,0,0-.24-.08c-.15-.08-.15-.23-.23-.31a.29.29,0,0,1,.08-.24C194.42,64.24,194.19,64.4,194,64.48Zm2.9.86V65.1c-.16-.15-.31-.23-.47-.39a7.48,7.48,0,0,0-.23.78C196.38,65.42,196.62,65.42,196.85,65.34Z" transform="translate(-5.04 -18.08)"/><path class="cls-1" d="M237,71.76a4.06,4.06,0,0,0-.08,1,3.7,3.7,0,0,1-.39.08c-.63-.16-1.26-.24-1.88-.39a8.47,8.47,0,0,1-4.23-3.14c-1-1.33-2-2.74-3-4.15a48.94,48.94,0,0,1-3.45-5.4c-.78-1.49-1.88-2.9-2.82-4.39-.63-1-1.17-2-1.8-3.06-.08-.15-.31-.23-.47-.47a1.72,1.72,0,0,0-.23.79c-.08,1.48-.16,3.05-.24,4.62a12.12,12.12,0,0,0-.08,2.43c0,1.49.16,3,.16,4.54s-.16,3.37-.31,5a1.39,1.39,0,0,1-.16.55c-.16.55-.24,1-.39,1.49-.08-.16-.24-.39-.32-.55-.86.08-.47.94-.94,1.33A4.46,4.46,0,0,1,215,72a1.34,1.34,0,0,1-.86-.71,5.62,5.62,0,0,1-.55-3c0-1.17-.08-2.42-.15-3.6,0-1.88-.08-3.84-.16-5.8,0-.86.16-1.72.08-2.66s-.16-2-.16-2.9c0-1.33.08-2.58.16-3.92,0-1.09-.16-2.19-.16-3.36s.16-2.35.24-3.53c0-.78.07-1.49.07-2.27.08-2.66.08-5.41.16-8.07,0-1.65,0-3.21.08-4.86.08-1.09.31-2.27.39-3.44s.16-2.28.24-3.37a3.76,3.76,0,0,1,.15-.94,6.44,6.44,0,0,1,3.69,1.72c.15-.08.39-.08.54-.16a7,7,0,0,1,4.7-.7c.87.16,1.81.39,2.67.63a7,7,0,0,1,3.21,2c.23.39.31.94.55,1.33a1.68,1.68,0,0,0,.39.63,1.74,1.74,0,0,1,.86,1.72c0,.47.16.94.16,1.41a11.29,11.29,0,0,1-.24,3.61c-.15.39,0,.78-.08,1.17-.23.71-.54,1.41-.78,2.2a20.49,20.49,0,0,1-.55,2.11,11.77,11.77,0,0,1-.62,1.49c-.16.31-.32.71-.47.94-.32.55-.71,1.1-1,1.57S227,42.46,226.7,43c-.08.16-.16.24-.24.39s-.23.24-.39.39-.08.24-.24.32c-.62.39-1.33.86-2,1.33a10.94,10.94,0,0,0-1.34,1.25c-.23.24-.54.47-.86.79a.94.94,0,0,1,.32.23,21.84,21.84,0,0,1,1.8,1.8c.62.79,1.09,1.65,1.64,2.43.79,1.18,1.57,2.27,2.27,3.45a4.69,4.69,0,0,1,.47,1.17c.4.63.87,1.1,1.26,1.73.23.31.62.54.55,1.17-.08.32.23.71.47,1a37.66,37.66,0,0,0,2,3.37c.63.94,1.49,1.88,2.2,2.82.39.63.78,1.33,1.17,2a17.08,17.08,0,0,0,1.1,1.56A2.22,2.22,0,0,1,237,71.76ZM222.31,38.7c1-1.41,2-3,3-4.39A7.41,7.41,0,0,0,226.54,31a19.18,19.18,0,0,0,.23-2.27,3.57,3.57,0,0,0-.15-2,3.34,3.34,0,0,0-.71-1.41,3.31,3.31,0,0,0-3.52-.87,9.91,9.91,0,0,1-1.49.32,11.82,11.82,0,0,0-1.65.55c-.54.15-.54.7-.62,1.25-.08.86-.32,1.72-.32,2.59-.07,1.09.08,2.27,0,3.44s-.15,2.12-.07,3.21a38.75,38.75,0,0,0-.08,4.31c.08,1,.08,2,.15,3.14a1.29,1.29,0,0,0,.24.47c.16-.24.31-.32.39-.47C220.12,41.76,221.21,40.27,222.31,38.7Z" transform="translate(-5.04 -18.08)"/><path class="cls-1" d="M285,70a.22.22,0,0,0-.15-.08,4,4,0,0,1-.86.78c-.87.4-1.73.71-2.59,1.1a9.61,9.61,0,0,1-3.37.71c-.7.07-1.49.23-2.11.31a2.47,2.47,0,0,1-1.1-.24c-.47-.23-.78,0-1.17-.07a1.08,1.08,0,0,0-.47.07c-.63,0-1.34-.07-1.88-.07a14.32,14.32,0,0,0-1.81-.08,3.82,3.82,0,0,1-1-.16v.16h-.87a17.87,17.87,0,0,0-1.88-.79,9.88,9.88,0,0,1-3-1.64c-.87-.55-1.88-2.27-1.49-3.45.08-.15-.08-.39-.08-.62a2.42,2.42,0,0,0,.16-.63c0-.78-.08-1.49-.08-2.35-.08-1.25-.08-2.59-.16-4,0-.47-.08-.94-.08-1.49a4,4,0,0,1-.08-1,12.33,12.33,0,0,0,0-2.43A30.1,30.1,0,0,1,261,50.3c0-.79-.23-1.57-.23-2.35,0-1.1,0-2.2.08-3.37,0-.94.07-1.88.15-2.9s.16-2,.24-3.13a15.5,15.5,0,0,1-.08-2c.08-1,.23-2,.31-3V31.42c0-.94,0-1.88.08-2.82.08-1.26.08-2.51.16-3.69a3.56,3.56,0,0,1,.62-2.11,1.33,1.33,0,0,1,1.49-.24.75.75,0,0,1,.47.16c.16.47.32,1.1.55,1.65a17.55,17.55,0,0,1,.24,2,7.9,7.9,0,0,0,.39,1.26,4.44,4.44,0,0,1,.15.94,8.46,8.46,0,0,1,.16,1.41v1.8c0,.55.08,1.1.08,1.57,0,.7-.08,1.48-.08,2.19a5,5,0,0,0,.08,1.88,5.53,5.53,0,0,1-.08,1.1,20.34,20.34,0,0,0,.16,2.19c0,.94.08,2,.08,3,0,.86.07,1.8,0,2.66-.08,1.25-.24,2.58-.32,3.84a5.71,5.71,0,0,0,.16,1.64c0,.79,0,1.57.08,2.43a6.26,6.26,0,0,0,.08,1.18v.7c.62.32.31.94.31,1.41.08.86.08,1.65.08,2.43v1.8c.23.79.39,1.57.63,2.35a10.46,10.46,0,0,0,.78,1.73,4.43,4.43,0,0,1,.55.86c.15.47.62.62,1.17.7a11.08,11.08,0,0,0,1.73.32c1.48.07,2.82-.08,4.23-.08.54,0,.94.08,1.48.08s1.18-.16,1.73-.16,1,.08,1.49.08h.39a4.84,4.84,0,0,1,2.82-.08c.62.16,1.49.78,1.49,1.49A1.7,1.7,0,0,0,285,70ZM265.7,67.14l-.62-.63v.71a1.28,1.28,0,0,1,.47.15C265.62,67.3,265.62,67.22,265.7,67.14Z" transform="translate(-5.04 -18.08)"/><path class="cls-1" d="M295.16,65.65c.47.16.94.31,1.48.55,1.65.63,3.06-.16,4.55-.71.94-.31,1.8-.62,2.66-.94a4.67,4.67,0,0,1,1-.07,1.12,1.12,0,0,0-.08.47c0,.07.08.15.16.23a3.83,3.83,0,0,1-.24.71c.39.39.71.78,1,1.09a1,1,0,0,1,.16,1.18,1,1,0,0,0-.08.47,2.16,2.16,0,0,1-1.25,1.8,11.34,11.34,0,0,1-3.53.94,2.86,2.86,0,0,0-1.57.47,2.77,2.77,0,0,1-1.17.16,15.1,15.1,0,0,1-1.88-.24,10.19,10.19,0,0,1-4-1.41,4.42,4.42,0,0,0-.62-.31,4.62,4.62,0,0,0-.71-.39c-.15-.24-.39-.47-.62-.79-.16-.08-.24-.31-.4-.39a15.41,15.41,0,0,1-1.8-2.58,9.2,9.2,0,0,1-.86-2.82,10.4,10.4,0,0,1-.47-3.77c.08-1.25.16-2.58.24-3.83,0-.4-.08-.79-.08-1.18,0-1.33.08-2.58.08-3.92.07-2.27.07-4.46.15-6.65.08-1.65.16-3.22.24-4.78q.22-3.06.47-6.11c.08-1.33.15-2.67.31-4,.24-2.11.47-4.15.78-6.19.08-.62.24-1.25.32-2a2,2,0,0,1,1.72-1.41c.47-.07,1-.07,1.49-.15a18.93,18.93,0,0,1,2.11-.24c1-.08,2-.08,3.06-.08.23,0,.55-.07.78-.07a16,16,0,0,1,2,0c.94.07,1.88.31,2.82.39l.94.23c.16.08.39.16.39.32.24.54.71.47,1.1.54s.7.16,1.18.24a5.55,5.55,0,0,1-.16.55.08.08,0,0,1-.08-.08l-.71.7.08.08a2.22,2.22,0,0,1-.7.16.48.48,0,0,1-.32-.08v.16a3.17,3.17,0,0,1-.86.15,16.5,16.5,0,0,0-2.66.4,9.13,9.13,0,0,1-1.33.31,2.84,2.84,0,0,1-.39-.08,12.3,12.3,0,0,1-2.82.16c-.94.15-1.73.31-2.51.47a.46.46,0,0,0-.47.62,9.76,9.76,0,0,1-.31,3c-.08.47-.08.94-.16,1.41s-.08.86-.16,1.33c0,.24.16.47.16.63a10.33,10.33,0,0,1,.08,1.57,23.11,23.11,0,0,1,.15,2.42c0,.4-.15.79-.15,1.18,0,.55.08,1.1.08,1.65,0,.15-.08.31,0,.47V41c0,.32-.08.71-.08.87-.39.62-.63,0-.94,0,.08.7.62.78,1.09.94a1.12,1.12,0,0,0,.47.07c1.18-.15,2.43-.47,3.61-.54a11.33,11.33,0,0,1,2.27.07c1,.08,2,.16,2.9.32l2.19.47a.79.79,0,0,1-.31,1,3,3,0,0,0-.55.86l-.47.47c0,.08.08.23.08.31v.08c-.55.39-.86,1-1.65,1.25s-1.48,0-2.27.24a13.62,13.62,0,0,1-5,.08h-1.33a2.34,2.34,0,0,0-.55.47.56.56,0,0,1,.08.31h-.08c0,.63.08,1.17.08,1.8,0,.08.07.16.07.24h-.07c.07,2.27.15,4.54.23,7,.39.31.24.86.16,1.41.08.08.08.15.15.23v2.2H294a1.14,1.14,0,0,0,.16.47c.08.78.15,1.56.31,2.35a8.56,8.56,0,0,0,.39,1.25c.08.08,0,.24,0,.24C295,65.57,295.08,65.65,295.16,65.65Zm-3.69-23.5c-.15-.24-.31-.47-.47-.78a.62.62,0,0,0-.07.31,3.29,3.29,0,0,0,.47.55Zm.16,22.33c.08.07.24.23.39.39l.08-.08a2.94,2.94,0,0,0,.55.23.28.28,0,0,1,.08-.23.4.4,0,0,0-.24-.08c-.15-.08-.15-.23-.23-.31a.29.29,0,0,1,.08-.24C292.1,64.24,291.87,64.4,291.63,64.48Zm2.9.86V65.1c-.16-.15-.31-.23-.47-.39-.08.24-.16.47-.24.78C294.06,65.42,294.29,65.42,294.53,65.34Z" transform="translate(-5.04 -18.08)"/><path class="cls-1" d="M313.88,38.15V38a3.82,3.82,0,0,0-.55-.32,1.1,1.1,0,0,0,.47-.07.94.94,0,0,0,.23-.32,3.7,3.7,0,0,0-.47-.31c.08.23.08.31.16.39h-.31c.86-6.11,2.19-12.06,3.6-18.1.39,0,.55-.23.63-.62a.55.55,0,0,1,.7-.55.94.94,0,0,1,.71.55c.23.31.31.7.55,1.09s.54.63.86,1l.15-.15a20.18,20.18,0,0,1,1,2.42,19.65,19.65,0,0,1,.55,2.2c.31,1.09.63,2.19.94,3.21.08.23.16.39.24.63.23.94.39,1.95.62,2.89s.47,1.65.71,2.43c.23,1,.47,2,.7,3,.16.71.32,1.41.47,2.12s.24,1.17.39,1.8a15.35,15.35,0,0,1,.4,1.88,17.43,17.43,0,0,1,.39,1.88c.15.86.31,1.72.47,2.58s.08,1.73.23,2.59.39,1.72.55,2.58.39,1.73.55,2.59c.08.31.23.55.31.86l.24,2.12c0,.15.15.31.23.54.16.71.32,1.49.47,2.2l.24,1.88c.08.47.15.94.23,1.33.08,1.1.08,2.19.24,3.29a12.86,12.86,0,0,1,.08,3.45.69.69,0,0,1-.24.47v.86c0,.23-.31.47-.7.47a2.37,2.37,0,0,1-2-1.65A21.65,21.65,0,0,1,327,69.1c-.39-1.1-.79-2.2-1.1-3.37s-.55-2.19-.78-3.37c-.39-2-.79-4-1.18-6a12,12,0,0,0-.31-1.65c-.08-.15-.24-.39-.39-.62a.22.22,0,0,0,.15-.08c-.07-.08-.07-.16-.15-.24a.48.48,0,0,1-.32.08,1.1,1.1,0,0,0-.07.47c-.4.08-.79.24-1.18.31-.16,0-.31-.15-.47-.31a1.22,1.22,0,0,0,.16.39l-3.06.24a1.56,1.56,0,0,1-1.72.23c-.63.24-.71.79-.86,1.34-.24.93-.08,1.95-.24,2.89-.15.79-.39,1.57-.55,2.35a.32.32,0,0,0-.07.24c0,.23.07.39.07.63-.15.94-.23,1.95-.39,2.89a6.93,6.93,0,0,1-.16,1.34,15.84,15.84,0,0,1,0,2,20.7,20.7,0,0,1-.31,2.35c0,.16-.08.4-.08.63v.08c-.07.78-.7.94-1.33,1.1a1.65,1.65,0,0,1-.55-.24.92.92,0,0,0-.86-.39,4.84,4.84,0,0,1-1.49-.94,1.92,1.92,0,0,1-.23-1.18,8.55,8.55,0,0,1-.16-1.33,6.78,6.78,0,0,1,0-1.8c.08-1.49.24-3,.39-4.46.08-.71.32-1.41.4-2.2.15-1,.31-2,.47-3,.07-.47.15-.94.23-1.49.23-1,.39-2,.55-3.06s.31-2.35.39-3.52a16.21,16.21,0,0,0,.16-2.74c.08-.55.23-1.1.31-1.57v-.16a5.68,5.68,0,0,1,.23-2.27c.08-.47.08-.94.16-1.41a13,13,0,0,0,.31-2c.08-.39.24-.78.32-1.17A2.3,2.3,0,0,1,313.88,38.15Zm-.32.94a3.15,3.15,0,0,0,.4-.54,3.22,3.22,0,0,0-.55.15C313.49,38.86,313.49,38.94,313.56,39.09Zm5.72-10.73c-.08.08-.23.16-.23.31-.08.48-.16.94-.24,1.41a18.27,18.27,0,0,1-.15,2,5.12,5.12,0,0,1-.16,1.1c-.08.63-.24,1.25-.31,2a23.86,23.86,0,0,0-.08,2.43,16.13,16.13,0,0,0-.32,3.37V41c-.15.63-.31,1.26-.39,1.81v1.48c0,.32-.15.63-.15.94a2.57,2.57,0,0,1-.16,1.73c-.08.86-.16,1.49-.24,2.19-.07.39-.23.86-.31,1.33,0,.16.08.39.31.32.94-.24,1.81-.47,2.67-.71a3.78,3.78,0,0,1,.94-.16,18.87,18.87,0,0,1,2-.39v.08a1.46,1.46,0,0,1,.23.31,3.69,3.69,0,0,0,0-.94c-.08-.78-.23-1.64-.39-2.5-.16-1.1-.24-2.2-.39-3.29a9.08,9.08,0,0,0-.39-2,26.23,26.23,0,0,1-.79-4.94c-.15-1-.31-2-.47-3s-.39-2.28-.62-3.45c-.08-.47-.08-.94-.16-1.41A.25.25,0,0,1,319.28,28.36Zm2.2,26a1.7,1.7,0,0,0,.54.08,1.83,1.83,0,0,1,.16-.63A2.37,2.37,0,0,1,321.48,54.37Zm.78-2.19c-.16,0-.31-.08-.55-.08v.23c.31,0,.55.08.86.08a.47.47,0,0,0,.08-.31A.69.69,0,0,1,322.26,52.18Z" transform="translate(-5.04 -18.08)"/><path class="cls-1" d="M352.73,23.27c-.47.08-.94.08-1.41.16-.94.15-1.88.39-2.82.47s-2.12-.16-3.13-.16-1.88-.08-2.75-.16-1.48.08-2.27.08a.84.84,0,0,0-.94.86c-.08,1.1-.15,2.2-.15,3.29,0,.86.07,1.73.15,2.59v1.72l.24,1.65a10.19,10.19,0,0,1,.08,1.56c0,.55-.08,1.18-.08,1.73,0,.31-.08.62-.08.94.08.08.31.31.39.31,1.8-.16,3.53-.23,5.33-.31a11.27,11.27,0,0,1,3.6.31l1.18.47a.28.28,0,0,1,.15.08c.32.47.63.86.86,1.25s.47.71.71,1v.16a11.54,11.54,0,0,1-1.41.7,10.77,10.77,0,0,1-1.8.47c-.39.08-.86.24-1.25.32l-2.12.47c-.08.07-.24,0-.39,0v.23H344a6.88,6.88,0,0,1-2.82.08,6.26,6.26,0,0,1-1.26-.08c-.08,0-.15.08-.23.08a15.76,15.76,0,0,1,.31,1.72c.08.86.08,1.73.16,2.59s.08,1.64.08,2.43c0,.47-.16.94-.16,1.41a2.89,2.89,0,0,0,.08.86c0,.39.08.78.08,1.17,0,1.1-.08,2.2-.08,3.22l.23,1.56a8.34,8.34,0,0,1,.08,1.41c-.08.55-.08,1.1-.16,1.65a12.94,12.94,0,0,0-.23,1.49c0,.62.16,1.17.16,1.8s-.24,1.09-.32,1.64-.23,1-.31,1.57a4.58,4.58,0,0,1-.78,2.43c-.24.31-.71.39-1.1.62h-.08c-.55.47-.86.08-1.25-.23s-.79-.39-1-.71a2.31,2.31,0,0,1-.39-1.25,7.47,7.47,0,0,0-.16-1.88c-.08-1.33-.16-2.58-.16-3.92-.07-1.09-.15-2.19-.15-3.36s.08-2.51.08-3.77c0-1,0-2.11.07-3.13s.08-2,.08-3.05V44.11l-.23-2.27a13.67,13.67,0,0,0,0-1.81c-.08-.86-.16-1.64-.24-2.5-.08-1.26-.08-2.51-.15-3.68v-5c0-1.1,0-2.11.07-3.13,0-.86.08-1.73.08-2.59.08-1.25.08-2.43.24-3.6a8.91,8.91,0,0,1,.31-1.41c.39.16.71.31,1,.47a.57.57,0,0,0,.39.08l2.51-.24a37.16,37.16,0,0,1,4.07-.31c.78,0,1.65.16,2.51.23a11.26,11.26,0,0,0,1.64.08l1.41.24c.16,0,.32,0,.39-.08.79-.31,1.49.16,2.2.31a3.2,3.2,0,0,1,1.41,1c.23.08.16.55.16.86a1.5,1.5,0,0,0,.23.79c.23.47.86.86.63,1.64C353.12,23.19,353,23.27,352.73,23.27ZM336.59,69.1l.16-.16a1.63,1.63,0,0,0-.08-.39.45.45,0,0,0-.31.08V69C336.44,69,336.51,69.1,336.59,69.1Zm1.73-2.35a2.42,2.42,0,0,0-.16-.63h-.24c0,.16-.07.39-.07.63a.3.3,0,0,0,.07.23c-.23.16-.39.24-.62.39.31.16.39.24.47.24l-.08.08c-.16,0-.31-.08-.47-.08a.08.08,0,0,1-.08.08c.16.15.39.23.55.39v-.16h.39c.08-.31.24-.7.31-1.09C338.39,66.83,338.39,66.75,338.32,66.75Zm4.62-23.66a5.07,5.07,0,0,1,.62-.24V42.7a.62.62,0,0,1-.31-.16c-.16.08-.23.16-.39.24a.36.36,0,0,1,.23.15h-.23A.28.28,0,0,1,342.94,43.09Zm4.46-20.6a.62.62,0,0,1-.31-.16v.55a.29.29,0,0,0,.24.08A1.12,1.12,0,0,0,347.4,22.49Zm.55-.79h-.16c-.07.24-.15.39-.23.63a.25.25,0,0,0,.16.08,4.75,4.75,0,0,1,.39-.32,3.94,3.94,0,0,1,.23.71c.24-.31.39-.47.55-.71a.07.07,0,0,1-.08-.07,2.38,2.38,0,0,0-.7.07C348,21.94,348,21.86,348,21.7Z" transform="translate(-5.04 -18.08)"/><path class="cls-2" d="M28.28,103.91H22.45L21.34,107H19.5l4.9-13h1.94l4.89,13H29.39Zm-.49-1.33-2.43-6.7-2.42,6.7Z" transform="translate(-5.04 -18.08)"/><path class="cls-2" d="M48.07,107l-3.46-5.41H42.75V107H41V93.72H45.4a4.73,4.73,0,0,1,3.39,1.08,3.8,3.8,0,0,1,1.13,2.87,3.71,3.71,0,0,1-.91,2.6,4.17,4.17,0,0,1-2.61,1.23L50,107Zm-5.32-6.65h2.5c2,0,2.92-.85,2.92-2.56s-1-2.55-2.92-2.55h-2.5Z" transform="translate(-5.04 -18.08)"/><path class="cls-2" d="M68.21,93.72v1.39H64.47V107H62.76V95.11H59V93.72Z" transform="translate(-5.04 -18.08)"/><path class="cls-2" d="M100.28,107l-2.9-3.19a2.94,2.94,0,0,1-.11.75,3,3,0,0,1-1.11,1.86,3.39,3.39,0,0,1-2.18.72,4.25,4.25,0,0,1-2.07-.5,3.62,3.62,0,0,1-1.41-1.39,4.58,4.58,0,0,1,0-4.08,3.1,3.1,0,0,1,1.23-1.3,3.4,3.4,0,0,1,1.71-.44,2.41,2.41,0,0,1,.41,0l-.28-.36a6.13,6.13,0,0,1-.8-1.21,3.16,3.16,0,0,1-.27-1.35,2.92,2.92,0,0,1,.38-1.44A3,3,0,0,1,94,94a3.9,3.9,0,0,1,1.84-.41,3.49,3.49,0,0,1,2.48.81,3.23,3.23,0,0,1,1,2,3,3,0,0,1,.11.84,2.27,2.27,0,0,1,0,.29H97.8a2.91,2.91,0,0,0,0-.31c0-.12,0-.21,0-.26a2,2,0,0,0-.53-1.45A1.87,1.87,0,0,0,95.86,95a1.72,1.72,0,0,0-1.3.49,1.61,1.61,0,0,0-.48,1.18,2.2,2.2,0,0,0,.21,1,5.94,5.94,0,0,0,.71,1l7,8.3Zm-4.6-2a2.25,2.25,0,0,0,.67-1.69A2.28,2.28,0,0,0,96,102a2.76,2.76,0,0,0-1-.92,2.59,2.59,0,0,0-1.26-.34,2.22,2.22,0,0,0-1.61.62,2.39,2.39,0,0,0-.63,1.77,2.43,2.43,0,0,0,.71,1.84,2.49,2.49,0,0,0,1.77.68A2.31,2.31,0,0,0,95.68,105Z" transform="translate(-5.04 -18.08)"/><path class="cls-2" d="M140.64,93.72,137.28,107h-2.09l-3.06-10.82L129.06,107H127l-3.39-13.25h1.9L128,105l3.14-11.26h1.9l3.14,11.22,2.55-11.22Z" transform="translate(-5.04 -18.08)"/><path class="cls-2" d="M152.45,95.11v4.53h5V101h-5v4.62h5.6V107h-7.31V93.72h7.31v1.39Z" transform="translate(-5.04 -18.08)"/><path class="cls-2" d="M176.78,101.28a3.18,3.18,0,0,1,.77,2.12,3.32,3.32,0,0,1-1.1,2.6,4.68,4.68,0,0,1-3.19,1h-4.93V93.72h4.85a4.6,4.6,0,0,1,3,.88,3.4,3.4,0,0,1,.35,4.5,3.13,3.13,0,0,1-1.76,1A3.46,3.46,0,0,1,176.78,101.28ZM170,99.53h2.86a2.85,2.85,0,0,0,1.93-.58,2.09,2.09,0,0,0,.67-1.64,2,2,0,0,0-.66-1.6,3,3,0,0,0-2-.58H170Zm5,5.4a2.18,2.18,0,0,0,.74-1.75,2.13,2.13,0,0,0-.76-1.74,3.23,3.23,0,0,0-2.12-.63H170v4.74h2.9A3.23,3.23,0,0,0,175,104.93Z" transform="translate(-5.04 -18.08)"/><path class="cls-2" d="M210.37,94.78A6.14,6.14,0,0,1,212.55,98h-1.8A4.47,4.47,0,0,0,209.11,96a4.73,4.73,0,0,0-2.76-.78,4.27,4.27,0,0,0-3.94,2.43,6,6,0,0,0-.59,2.76,5.83,5.83,0,0,0,.59,2.72,4.27,4.27,0,0,0,3.94,2.43,4.73,4.73,0,0,0,2.76-.78,4.45,4.45,0,0,0,1.64-2.1h1.8a6.06,6.06,0,0,1-2.18,3.26,6.43,6.43,0,0,1-4,1.2,6.26,6.26,0,0,1-3.29-.86,5.79,5.79,0,0,1-2.23-2.39,7.44,7.44,0,0,1-.8-3.48,7.58,7.58,0,0,1,.8-3.52,5.81,5.81,0,0,1,2.23-2.4,6.25,6.25,0,0,1,3.29-.85A6.48,6.48,0,0,1,210.37,94.78Z" transform="translate(-5.04 -18.08)"/><path class="cls-2" d="M230,107l-3.46-5.41h-1.86V107h-1.71V93.72h4.36a4.72,4.72,0,0,1,3.38,1.08,3.77,3.77,0,0,1,1.13,2.87,3.7,3.7,0,0,1-.9,2.6,4.17,4.17,0,0,1-2.61,1.23L231.9,107Zm-5.32-6.65h2.5c1.94,0,2.91-.85,2.91-2.56s-1-2.55-2.91-2.55h-2.5Z" transform="translate(-5.04 -18.08)"/><path class="cls-2" d="M243.68,95.11v4.53h5V101h-5v4.62h5.61V107H242V93.72h7.32v1.39Z" transform="translate(-5.04 -18.08)"/><path class="cls-2" d="M267.33,103.91H261.5L260.4,107h-1.85l4.91-13h1.94l4.88,13h-1.84Zm-.49-1.33-2.42-6.7-2.43,6.7Z" transform="translate(-5.04 -18.08)"/><path class="cls-2" d="M288.22,93.72v1.39h-3.74V107h-1.71V95.11H279V93.72Z" transform="translate(-5.04 -18.08)"/><path class="cls-2" d="M299.71,93.72V107H298V93.72Z" transform="translate(-5.04 -18.08)"/><path class="cls-2" d="M311.4,93.72l4,11.36,4.1-11.36h1.86L316.53,107h-2.16l-4.85-13.25Z" transform="translate(-5.04 -18.08)"/><path class="cls-2" d="M332.92,95.11v4.53h5V101h-5v4.62h5.61V107h-7.32V93.72h7.32v1.39Z" transform="translate(-5.04 -18.08)"/></svg>