<svg id="svg_copy" data-name="svg copy" xmlns="http://www.w3.org/2000/svg" viewBox="0 0 333.55 173.13"><defs><style>.cls-1{fill:none;stroke:#62a9b9;stroke-linecap:round;stroke-linejoin:round;stroke-width:2px;}.cls-2{fill:#62a9b9;}.cls-3{fill:#a0d5bc;}</style></defs><path class="cls-1" d="M118.28,87.69c19.19,7.82,30.31,9.41,43.24,9.2,7.53-.12,21.91-3,35.38-5.74,9.58-2,16-11,21.93-18.67C222.4,67.84,231,44.58,231,44.58c-12.15-8.73-32.67-17.55-49.42-9.8C161.8,44,166.28,60.27,152.51,73.85,142.87,83.37,122.26,86.71,118.28,87.69Z" transform="translate(-12.87 -30.8)"/><path class="cls-1" d="M242.87,33.3C231.4,47.2,224.1,47.8,214.62,53.82c-8.25,5.24-31.19,19.69-37.9,24.41-11.23,7.91-25.17,12.61-51.5,12.15" transform="translate(-12.87 -30.8)"/><path class="cls-1" d="M166.44,92.21" transform="translate(-12.87 -30.8)"/><path class="cls-1" d="M181.6,93.94c4.56-11.53,5.08-15.6,6.23-23.06" transform="translate(-12.87 -30.8)"/><path class="cls-1" d="M196.9,91.15c6.42-12.46,9.38-22.56,10-32.46" transform="translate(-12.87 -30.8)"/><path class="cls-1" d="M152.51,73.85c18.14.8,21-4.63,36.28-3.59" transform="translate(-12.87 -30.8)"/><path class="cls-1" d="M173.51,40.07c18.83,10.28,25.31,10.49,41.11,13.75" transform="translate(-12.87 -30.8)"/><path class="cls-1" d="M198.21,31.87c10.48,5.06,16.41,9.78,24.55,17.47" transform="translate(-12.87 -30.8)"/><path class="cls-2" d="M45.55,124c-.23.3-.45.45-.83.15a2.55,2.55,0,0,1-2,.6c-.68,0-1.35.37-2.1.15,0,.07-.08.15-.08.22-2.54.15-5.09.23-7.42.38-1-.15-1.8-.23-2.62-.3-.3,0-.45.15-.38.45a13.57,13.57,0,0,0,.45,2.32c-.15.15-.22.3-.3.38a1,1,0,0,0,.15.22c.08.83.15,1.65.23,2.4a1.6,1.6,0,0,1,.07.53,2.19,2.19,0,0,0-.07.67c.07,1,.22,1.88.22,2.85a16.82,16.82,0,0,1-.07,2.7c.07.53.07,1.13.15,1.8h-.08c0,.15.08.23.08.3a.24.24,0,0,1-.08.15c.15.83.23,1.58.3,2.33-.07.07-.07.22-.15.3.08.07.15.22.23.3a4,4,0,0,0-.08,1c0,.15.08.38.08.6a14.3,14.3,0,0,1,.07,1.73c0,.45-.07.9-.07,1.42v.83a.7.7,0,0,0,.07.37,1.23,1.23,0,0,1-.07.9,4.61,4.61,0,0,0,0,1.05v.08a12.93,12.93,0,0,1,.07,1.65,10.33,10.33,0,0,1,.08,1.57,8.52,8.52,0,0,0,0,1.43c0,1-.08,1.87-.08,2.85a17.52,17.52,0,0,1-.07,2,2.93,2.93,0,0,1-.15,1.42,5.52,5.52,0,0,0-.23,1.88,6.46,6.46,0,0,0-.07,1.2,18.06,18.06,0,0,1,.07,1.95c0,.37.08.75.08,1.05s-.08.52-.08.75a.51.51,0,0,0,0,.45c-.07.22-.07.45-.15.67-.3.3-.37.9-1,1a1.35,1.35,0,0,1-1.28-.23c-.45-.45-1.05-.82-1.5-1.27a2.16,2.16,0,0,1-.52-1.2,29,29,0,0,1-.38-3.68c-.07-.07,0-.22,0-.3l-.07-.07a19.67,19.67,0,0,1,.07-2c0-1.12.08-2.17.15-3.22v-8.18c0-1.42-.07-2.92-.07-4.42s.15-3.08.07-4.58c0-1-.15-2.1-.15-3.22-.07-1.58,0-3.15-.07-4.73,0-1.35-.08-2.77-.15-4.2,0-1.12-.08-2.25-.15-3.37a4.9,4.9,0,0,1,.15-.9,7.84,7.84,0,0,0-1.43.15,9.65,9.65,0,0,0-1.5.15c-.6.07-1.12.07-1.72.15s-1.43-.08-2.18-.08H17.58a3.29,3.29,0,0,0-.83,0,4.06,4.06,0,0,1-1.87-.45,5,5,0,0,1-1.73-1.57c-.37-.45-.37-.75,0-1.28,1-.15,2.25-.3,3.38-.52,1-.15,1.95-.45,2.92-.6s1.65-.08,2.4-.15c.38,0,.68-.08,1-.08,1.2,0,2.4-.07,3.6-.07a24,24,0,0,1,3.3-.08c1.8.15,3.53-.22,5.25-.15s3.22,0,4.8.08h1.88a1.71,1.71,0,0,1,.37.22,1,1,0,0,0,.9.23c.52-.08,1-.15,1.27-.23a1.57,1.57,0,0,1,.68,1.35,4.73,4.73,0,0,0,.45.9C45.55,123.36,45.77,123.66,45.55,124Zm-6.53.52a3.44,3.44,0,0,1-.52-.45,2.2,2.2,0,0,0-.3.6C38.5,124.64,38.73,124.64,39,124.56Z" transform="translate(-12.87 -30.8)"/><path class="cls-2" d="M56.5,147.81c-.07,2.63,0,5.25,0,7.8V163c0,2,0,4-.07,6.08a4.13,4.13,0,0,1-.75,2.77,6.25,6.25,0,0,1-1.2.15c-.3-.37-.53-.75-.75-1a4.32,4.32,0,0,0-1-.45c-.08-.68-.08-1.35-.15-1.95-.23-1.65-.6-3.3-.83-4.88-.07-1,0-1.87-.07-2.77-.23-1.65-.08-3.3-.38-4.95a13.32,13.32,0,0,1-.3-4.88,6.72,6.72,0,0,0,0-1.27c0-.23.15-.45.15-.75H51c-.15-.83.38-1.65-.22-2.33-.15,0-.3.08-.45.08a1.55,1.55,0,0,1-.23.15c-.9-.08-1.8-.15-2.55-.23-.15.15-.22.23-.3.3.08.08.15.08.23.15v.15a2.69,2.69,0,0,0-.83.08,1.43,1.43,0,0,1-.3-.38c-.22.15-.45.23-.67.38a3,3,0,0,0-.53-.38.66.66,0,0,0,.08.38,1.79,1.79,0,0,1-.6.07,1.48,1.48,0,0,0-.15-.37,1.49,1.49,0,0,1-.23.37c-.15-.15-.22-.3-.37-.45-.23.08-.45.15-.75.23a.27.27,0,0,1-.23-.08c-.9.08-.9.38-1,1.5,0,.75-.08,1.58-.08,2.4,0,.08-.15.15-.15.15v.68c0,.6-.07,1.2-.07,1.8-.15,1-.3,1.95-.38,3-.07.82-.15,1.65-.15,2.47-.15,1.88-.3,3.83-.45,5.78-.07,1.5-.15,3.07-.22,4.65a1.14,1.14,0,0,1-.6,1c-.53.23-.83.08-1.28-.45s-.75-1.12-1.12-1.65a4.48,4.48,0,0,1-.38-1c-.07-.6,0-1.12-.07-1.72s-.23-1.05-.38-1.65c-.07-.38-.07-.75-.15-1.13v-5.1c0-.22-.07-.52-.07-.82h-.08c0-2.7-.07-5.4-.07-8.1H36.1c0-.23-.15-.53-.07-.68a1.76,1.76,0,0,0,.07-1.5,5.87,5.87,0,0,1,0-2.25c0-.22-.07-.45-.07-.67s.3-.23.6-.45H36c0-1.65,0-3.3-.07-5.1,0-.83.07-1.73.07-2.63H36c-.08-.07-.08-.22-.15-.3s.15-.15.22-.15c-.52-.67-.15-1.35-.3-2a4.93,4.93,0,0,0,.45-.3c-.22-.08-.3-.08-.37-.15a.27.27,0,0,1-.08-.23A1.14,1.14,0,0,1,36,132c.08-.08.15-.15.23-.15-.15-.3-.3-.53-.45-.83.15-.07.22-.07.3-.15a10.69,10.69,0,0,1-.45-3.82c-.08-1.28.07-2.55.07-3.9.68-.15.53-.75.6-1.2,0-.68.38-1,.6-1.58.08-.22.23-.45.38-.75a.93.93,0,0,1,1,.08,10.48,10.48,0,0,0,1.95,1,1.71,1.71,0,0,1,1.2,1.42,37.42,37.42,0,0,1,.53,4c.07,1.13,0,2.18,0,3.3.07,1.65.15,3.3.15,5v8.33c0,.45.22.67.67.52a.78.78,0,0,1,.08.38,7.26,7.26,0,0,0,1.35-.08,3.45,3.45,0,0,0,.45.3l.22-.22a4,4,0,0,0-.82-.45c1-.15,1.87-.23,2.85-.38a1.11,1.11,0,0,0-.23.3c.15.15.23.38.38.53a1,1,0,0,1,.52-.15l-.07-.08H47c.07-.22.07-.45.15-.52,1-.08,2.1-.23,3.22-.3a2,2,0,0,1-.52.3h1c.08-.68.08-1.35.15-2,0-.22.08-.45.08-.75,0-1.2.07-2.47.07-3.75.08-1.5.15-3,.23-4.5.07-.07.07-.07.07-.22h.3v-.3h-.3c-.07-.45-.07-.9-.15-1.43a.82.82,0,0,0,.3-.07,2.57,2.57,0,0,1-.22-.68,13.66,13.66,0,0,1-.15-1.8c0-.67.07-1.27.07-1.87v-3a6.48,6.48,0,0,1,.68.15.85.85,0,0,1,.07-.45c-.22,0-.37.07-.52.07a.07.07,0,0,0-.08-.07l.45-.68-.15-.15a5.31,5.31,0,0,1,.45-1.2c.38.3.75.45,1.05.68a.88.88,0,0,0,.38.07c.67-.15,1.05.3,1.8.6.45.08.67.68.9,1.2a17.49,17.49,0,0,1,.22,2c.08,1.42.15,2.77.15,4.12.08,1.05,0,2.18,0,3.23s.15,2.32.15,3.52-.15,2.33-.15,3.53C56.58,142,56.5,145,56.5,147.81ZM36.7,128.76c-.15-.07-.22-.15-.37-.22a1.64,1.64,0,0,1-.3.15c.07.15.07.3.15.45A3.34,3.34,0,0,0,36.7,128.76Zm-.52-4.87.45.45a1.21,1.21,0,0,0,.6.15c0,.22-.08.45-.08.67.15-.07.3-.07.45-.15a.51.51,0,0,0,.15-.3,1.54,1.54,0,0,0,.6.45c.45.08.75.23.83.75a.94.94,0,0,1-.38-.22,3.45,3.45,0,0,1-.3.52,1.83,1.83,0,0,1,.53-.07c0,.07.07.15.15.22.3-.22.52-.37.82-.6-.07-.07-.07-.22-.15-.3l-.45.23a1.55,1.55,0,0,0-.07-.6c-.38-.08-.75-.23-1.2-.3a1,1,0,0,1,.07-.45,3.34,3.34,0,0,0-.52.15c-.08-.15-.15-.23-.23-.38-.07,0-.22.08-.3.08s-.22-.23-.3-.3a3.43,3.43,0,0,1,.08-.38c0-.07-.08-.07-.08-.07a1.11,1.11,0,0,1-.22.3A1.14,1.14,0,0,1,36.18,123.89Zm0,16.5c.15.37.22.6.37.9h.15a2.27,2.27,0,0,0-.22-.83,7,7,0,0,1,.6.45,1.5,1.5,0,0,0,.22-.37C36.93,140.46,36.55,140.46,36.18,140.39Zm.37-12.53h-.22a2,2,0,0,1-.08.6,1.86,1.86,0,0,0,.53-.22A1.8,1.8,0,0,0,36.55,127.86Zm-.22,7.28c.22.07.45.22.67.3h.08a3.22,3.22,0,0,0-.53-.6A1,1,0,0,0,36.33,135.14Zm.15-1.73h.22a3.34,3.34,0,0,1,.38-.52c-.08,0-.08-.08-.15-.08s-.15.15-.23.15-.15-.07-.3-.15C36.4,133,36.48,133.26,36.48,133.41Zm.3,9.15a.29.29,0,0,0,.15-.07c-.08-.3-.23-.53-.3-.83a.24.24,0,0,1-.15.08A3.39,3.39,0,0,0,36.78,142.56Zm.82-5-.07-.15c-.3-.15-.6-.23-1-.38a9.19,9.19,0,0,1,.9,1A.63.63,0,0,0,37.6,137.54Zm-.9-15.6c.15.07.3.22.38.22.07.3.22.6.3.9a1.32,1.32,0,0,0,.45-.22,4.8,4.8,0,0,1-.53-.83c.15-.15.3-.22.45-.37H37.3c-.07.07-.07.15-.15.22H36.7Zm.45,16.95H36.7l.68.9a.15.15,0,0,1,.15-.15A3.53,3.53,0,0,0,37.15,138.89Zm.15,14.17c-.07-.22-.15-.52-.3-.9-.07.15-.15.23-.15.3l.23.68A.26.26,0,0,0,37.3,153.06Zm.08-7.5a2,2,0,0,0-.15-.6A.27.27,0,0,0,37,145a1.61,1.61,0,0,1,.15.6A.27.27,0,0,0,37.38,145.56Zm-.3-22.42c.15.37.22.6.3.82h.15c0-.15.07-.37.07-.6A3.87,3.87,0,0,0,37.08,123.14Zm.37,6.9a8,8,0,0,1,.3-1,1.37,1.37,0,0,1-.6-.07A6.17,6.17,0,0,0,37.45,130Zm.3,3.67a.25.25,0,0,0,.15-.07,6.3,6.3,0,0,1-.22-.83c-.08.23-.23.3-.23.38S37.68,133.56,37.75,133.71Zm-.3,8.1a1.14,1.14,0,0,1,.45.15,1,1,0,0,0-.15-.45,2,2,0,0,1,.68.3c.07-.07.22-.07.37-.15-.15-.22-.22-.45-.37-.67-.08.15-.23.3-.3.45a1.59,1.59,0,0,0-.45-.08,4.62,4.62,0,0,1,.52-.3c-.07-.07-.07-.15-.15-.22s-.3.07-.45.15A3.59,3.59,0,0,1,37.45,141.81Zm.75,5.4a3.44,3.44,0,0,0-.45-.52.07.07,0,0,1-.07.07,2.53,2.53,0,0,0,.3.68Zm-.45-25.87a6,6,0,0,1,.68.37v.3c.15-.07.3-.07.37-.15l-.45-.9c-.07.08-.15.08-.15.15A2.32,2.32,0,0,1,37.75,121.34Zm.3-1c.08.15.08.3.15.45.15,0,.3-.07.6-.07-.22-.3-.3-.45-.45-.68C38.2,120.21,38.13,120.29,38.05,120.36ZM38.8,142h-.6c0,.07,0,.07-.07.15l.67.45Zm-.22-3.75a1.2,1.2,0,0,1,.07-.53h-.22a1.28,1.28,0,0,0-.23.75c0,.08.23.23.3.3s.08-.07.15-.07A1.2,1.2,0,0,1,38.58,138.29Zm.15-4.95a1.54,1.54,0,0,0,.6.3.55.55,0,0,0,.3-.08v-.07c-.23-.08-.45-.23-.68-.3a.74.74,0,0,0-.07-.38c-.15,0-.38.08-.53.08C38.5,133.11,38.58,133.26,38.73,133.34Zm.22-3.9a2.16,2.16,0,0,1,.08-.75c-.15-.08-.23-.08-.3-.15C38.43,128.91,38.5,129.21,39,129.44Zm-.3-6.9v.07a1.47,1.47,0,0,0,.45.3c.08-.07.15-.15.3-.3C39.1,122.61,38.88,122.54,38.65,122.54ZM38.73,134a4.9,4.9,0,0,0,.15.9,1.77,1.77,0,0,1,.3-.37,4.14,4.14,0,0,1-.3-.6C38.8,133.94,38.73,133.94,38.73,134Zm.75,7.65c-.23,0-.3-.07-.3-.07-.08-.15-.23-.23-.23-.3H38.8V142A2.53,2.53,0,0,0,39.48,141.66Zm.52-2.77-.07-.08c-.08,0-.15,0-.15.08s-.38.22-.68.22-.37.15-.22.45c.07,0,.15.08.3.08s.07-.15.15-.23.15.08.3.08C39.78,139.26,39.85,139.11,40,138.89Zm-1.12-.23c0,.08.07.15.22.38a5.35,5.35,0,0,0,.08-1c.22,0,.37-.08.67-.08-.15-.15-.22-.22-.3-.22a6.6,6.6,0,0,0-.67.22ZM52,123.74v.67l.6.23a.56.56,0,0,0,.08-.23l-.38-.75a4.53,4.53,0,0,1,.3-.9C52,122.91,51.93,123.21,52,123.74Zm1,5.17a2.62,2.62,0,0,1-.38-.6,3.78,3.78,0,0,1-.52.23v.52C52.38,129,52.6,129,53,128.91Zm.37,18.9c-.15,0-.3-.07-.52-.07.07-.15.07-.3.15-.53,0-.07-.15-.22-.3-.37a2.38,2.38,0,0,1-.15.75c.07.07.07.22.15.3a2.19,2.19,0,0,0,.67.07Zm-.15-17.32c.08-.6-.07-.83-.6-.75a4.62,4.62,0,0,0,.3.52v.3A.46.46,0,0,0,53.2,130.49Zm0-7c-.22-.07-.3-.07-.52-.15l.37.38a3.91,3.91,0,0,0-.07.9,1.17,1.17,0,0,0,.45.07,5.7,5.7,0,0,1,.67-.3V124a.9.9,0,0,0-.45.08c0-.15,0-.23.08-.3H54c-.07,0-.07-.08-.07-.08a2.75,2.75,0,0,0,.52-.3,16.21,16.21,0,0,0-1.35-1l-.07.07C53.05,122.76,53.13,123.14,53.2,123.51Zm.53,1.95.37-.37a1.64,1.64,0,0,1-.15-.3,2.31,2.31,0,0,1-.67.15v.3a1,1,0,0,0,.3.22l-.45.23a4.79,4.79,0,0,0,.3.45,1.58,1.58,0,0,0,.6-.08A3.69,3.69,0,0,1,53.73,125.46Zm-.6,5.85a9.41,9.41,0,0,1,.9-.45c-.23-.15-.38-.3-.45-.3C53.43,130.79,53.35,131,53.13,131.31ZM54.48,135v-.15H54a1.81,1.81,0,0,1,.15-.53c-.23-.07-.45-.15-.75-.22a4.62,4.62,0,0,1,.3.52,1.53,1.53,0,0,0-.3.38,1.19,1.19,0,0,0,.22.15A4.47,4.47,0,0,1,54.48,135Zm.82-11.48h-.37c-.08,0-.15-.07-.23-.15l-.22.45a3.68,3.68,0,0,0,.52.53A3.46,3.46,0,0,0,55.3,123.51Z" transform="translate(-12.87 -30.8)"/><path class="cls-2" d="M69.18,164.24c.45.15.9.3,1.42.52,1.58.6,2.93-.15,4.35-.67.9-.3,1.73-.6,2.55-.9a3.74,3.74,0,0,1,1-.08,1.06,1.06,0,0,0-.08.45c0,.08.08.15.15.23a3.47,3.47,0,0,1-.22.67c.37.38.67.75,1,1a.92.92,0,0,1,.15,1.13,1,1,0,0,0-.07.45,2.05,2.05,0,0,1-1.2,1.72,10.66,10.66,0,0,1-3.38.9,2.8,2.8,0,0,0-1.5.45,2.72,2.72,0,0,1-1.12.15,13.82,13.82,0,0,1-1.8-.22,9.86,9.86,0,0,1-3.83-1.35,3.69,3.69,0,0,0-.6-.3,5,5,0,0,0-.67-.38c-.15-.22-.38-.45-.6-.75-.15-.07-.23-.3-.38-.37a14.58,14.58,0,0,1-1.72-2.48,8.63,8.63,0,0,1-.83-2.7,9.91,9.91,0,0,1-.45-3.6c.08-1.2.15-2.47.23-3.67,0-.38-.08-.75-.08-1.13,0-1.27.08-2.47.08-3.75.07-2.17.07-4.27.15-6.37.07-1.58.15-3.08.22-4.58l.45-5.85c.08-1.27.15-2.55.3-3.82.23-2,.45-4,.75-5.93.08-.6.23-1.2.3-1.87a1.9,1.9,0,0,1,1.65-1.35c.45-.08,1-.08,1.43-.15a17.35,17.35,0,0,1,2-.23c1-.07,2-.07,2.93-.07.22,0,.52-.08.75-.08a16.67,16.67,0,0,1,1.87,0c.9.08,1.8.3,2.7.38l.9.22c.15.08.38.15.38.3.22.53.67.45,1,.53s.67.15,1.12.22a3.19,3.19,0,0,1-.15.53.07.07,0,0,1-.07-.08l-.68.68.08.07a2.08,2.08,0,0,1-.68.15.49.49,0,0,1-.3-.07v.15a3.38,3.38,0,0,1-.82.15,16,16,0,0,0-2.55.37,7.41,7.41,0,0,1-1.28.3,3.1,3.1,0,0,1-.37-.07,11.77,11.77,0,0,1-2.7.15c-.9.15-1.65.3-2.4.45a.44.44,0,0,0-.45.6,9.26,9.26,0,0,1-.3,2.85c-.08.45-.08.9-.15,1.35s-.08.82-.15,1.27c0,.23.15.45.15.6a10.83,10.83,0,0,1,.07,1.5,21.39,21.39,0,0,1,.15,2.33c0,.37-.15.75-.15,1.12,0,.53.08,1,.08,1.58,0,.15-.08.3,0,.45v3.22c0,.3-.08.68-.08.83-.37.6-.6,0-.9,0,.08.67.6.75,1.05.9a1,1,0,0,0,.45.07c1.13-.15,2.33-.45,3.45-.52A10.44,10.44,0,0,1,74,142c1,.08,1.87.15,2.77.3l2.1.45a.76.76,0,0,1-.3,1,3.1,3.1,0,0,0-.52.82l-.45.45c0,.08.07.23.07.3v.08c-.52.37-.82,1-1.57,1.2s-1.43,0-2.18.22a12.91,12.91,0,0,1-4.8.08H67.83a2.65,2.65,0,0,0-.53.45.53.53,0,0,1,.08.3H67.3c0,.6.08,1.12.08,1.72,0,.08.07.15.07.23h-.07c.07,2.17.15,4.35.22,6.67.38.3.23.83.15,1.35.08.08.08.15.15.23v2.1h.15a1.14,1.14,0,0,0,.15.45c.08.75.15,1.5.3,2.25a8.3,8.3,0,0,0,.38,1.2c.07.07,0,.22,0,.22C69,164.16,69.1,164.24,69.18,164.24Zm-3.53-22.5a7.07,7.07,0,0,1-.45-.75.59.59,0,0,0-.07.3,3.44,3.44,0,0,0,.45.52Zm.15,21.37.38.38.07-.08a3.47,3.47,0,0,0,.53.23.3.3,0,0,1,.07-.23.37.37,0,0,0-.22-.07c-.15-.08-.15-.23-.23-.3a.27.27,0,0,1,.08-.23C66.25,162.89,66,163,65.8,163.11Zm2.78.83v-.23c-.15-.15-.3-.22-.45-.37-.08.22-.15.45-.23.75C68.13,164,68.35,164,68.58,163.94Z" transform="translate(-12.87 -30.8)"/><path class="cls-2" d="M128.5,149.69c-.23,2.4-.68,4.8-1,7.2a19.2,19.2,0,0,1-1.5,5.4c-.52,1.27-1,2.55-1.5,3.75a4,4,0,0,1-1.72,2.1c-.45.3-.75.75-1.2,1.05a4.63,4.63,0,0,1-2.55,1.27,8.8,8.8,0,0,1-3.15-.15,11.57,11.57,0,0,1-3.75-1.5,7.55,7.55,0,0,1-1.65-1.35c-.67-.82-1.2-1.87-1.8-2.77-.37-.6-.6-1.28-1-1.88a.07.07,0,0,0-.08-.07c-.37-1.28-.82-2.55-1.2-3.83-.15-.3-.22-.6-.37-.9a9.42,9.42,0,0,1-.83-2.55c-.07-.37-.37-.75-.45-1.12-.37-1-.6-2-.9-2.93a3.87,3.87,0,0,1-.22-.52c.07-.08.15-.08.22-.15-.15-.83-.75-1.58-.45-2.63a.82.82,0,0,0-.15-.22,2.35,2.35,0,0,1,.45-.15,2,2,0,0,1-.52-.3c.07-1.28.07-2.63.15-4.05,0-.53-.6-1.13-.08-1.8-.07,0-.07-.08-.15-.15s0-.08.08-.15l.07-.08a.78.78,0,0,1,.38.08l-.3-.3a3.86,3.86,0,0,0,.07-.38c-.07-.07-.15-.07-.22-.15v-.52a.59.59,0,0,0,.3.07v.45a1.28,1.28,0,0,0,.52-.15c-.15-.15-.15-.22-.3-.3.08-.07.15-.22.23-.3-.08-.37-.08-.75.52-.9v-.3h.08c.07-.45.07-.82.15-1.27-.3-.08-.6-.15-.83-.23-.07.08-.07.15-.15.15.15.23.3.38.45.6a.93.93,0,0,1-.37.08c-.53-.45-.23-1-.15-1.43a6.33,6.33,0,0,1,.22-1.72c.08-.45.3-.9.38-1.35s.15-.83.3-1.28c.22-.82.45-1.72.75-2.55.15-.45.37-.82.52-1.27a18,18,0,0,1,1.13-2,14.21,14.21,0,0,1,1.35-1.72,4.41,4.41,0,0,1,1.2-1.2,3.89,3.89,0,0,1,2.1-.45,5.39,5.39,0,0,0,1.49-.15,11.81,11.81,0,0,1,4,0,17.45,17.45,0,0,1,4.2,1.5,9.4,9.4,0,0,1,4.5,5.77c.52,1.95,1.12,3.83,1.65,5.7.3,1.43.52,2.85.75,4.28.22,1.65.37,3.37.45,5A34,34,0,0,1,128.5,149.69Zm-25.27-9.83c.07-.52.15-.9.22-1.27v.3c.08,0,.15.07.23.07a1.6,1.6,0,0,0,.07.53A3.63,3.63,0,0,0,103.23,139.86Zm.75-1.2a3.19,3.19,0,0,1-.53-.15.76.76,0,0,1,.08-.37h.37C103.9,138.29,104,138.44,104,138.66Zm-.53-.07v0Zm1-2.1a4.5,4.5,0,0,0-.6.37.08.08,0,0,0,.08.08c.07,0,.15-.08.22-.15s.15.07.3.15Zm19.27,8.17c0-.75.08-1.5.08-2.32a3.09,3.09,0,0,1-.23-2,14.14,14.14,0,0,1-.07-1.72v-.75c-.08-.3-.08-.53-.15-.83a9.76,9.76,0,0,0-.75-3.3c-.3-.67-.6-1.27-.83-1.87-.37-1-.75-2-1-2.85l-.22-.45.07-.08a13.64,13.64,0,0,0-1.27-1.72,4.42,4.42,0,0,0-3.23-2,.62.62,0,0,0-.37.15,16,16,0,0,0-1.65,2.25,10.73,10.73,0,0,0-1.42,4.28c-.38,1.87-.75,3.67-1.2,5.55a21.51,21.51,0,0,0-.6,7.65c.07.75,0,1.42,0,2.17,0,1-.08,2,0,2.93a38.74,38.74,0,0,0,.82,4.05c.38,1.5.83,3.07,1.28,4.65a9.08,9.08,0,0,0,1.5,3.37c.75,1.05,1.57,2,2.32,3.08.22.3.45.52.82.22,0,.23.08.3.08.53.22,0,.45.07.53-.08a17.49,17.49,0,0,0,1.65-1.57,5.48,5.48,0,0,0,.52-.6.23.23,0,0,1,.15.07c.07-.37.15-.75.22-1.27,1-.75.9-2.18,1.5-3.3.08-.15.15-.38.23-.53.15-.6.38-1.12.6-1.8l.15-.15a17.06,17.06,0,0,1-.08-2v-1.28a24,24,0,0,0,.08-2.4,7.69,7.69,0,0,0,0-1.27,5.54,5.54,0,0,1,.22-2.7,4.71,4.71,0,0,0,.38-2Zm.83-3.15c-.08-.37-.08-.82-.15-1.2h-.07v.23c-.16.37-.23.6-.38.9a1.11,1.11,0,0,1,.3.22C124.38,141.59,124.52,141.59,124.6,141.51Z" transform="translate(-12.87 -30.8)"/><path class="cls-2" d="M161.8,124c-.23.3-.45.45-.83.15a2.55,2.55,0,0,1-2,.6c-.68,0-1.35.37-2.1.15,0,.07-.08.15-.08.22-2.55.15-5.1.23-7.42.38-1-.15-1.8-.23-2.63-.3-.3,0-.45.15-.37.45a11.88,11.88,0,0,0,.45,2.32,3.92,3.92,0,0,0-.3.38.71.71,0,0,0,.15.22c.07.83.15,1.65.22,2.4a1.42,1.42,0,0,1,.08.53,1.93,1.93,0,0,0-.08.67c.08,1,.23,1.88.23,2.85a16.92,16.92,0,0,1-.08,2.7c.08.53.08,1.13.15,1.8h-.07c0,.15.07.23.07.3a.25.25,0,0,1-.07.15c.15.83.22,1.58.3,2.33-.08.07-.08.22-.15.3s.15.22.22.3a4.53,4.53,0,0,0-.07,1c0,.15.07.38.07.6a12.53,12.53,0,0,1,.08,1.73c0,.45-.08.9-.08,1.42v.83a.62.62,0,0,0,.08.37,1.28,1.28,0,0,1-.08.9,5.26,5.26,0,0,0,0,1.05v.08a11.33,11.33,0,0,1,.08,1.65,11.79,11.79,0,0,1,.07,1.57,9.73,9.73,0,0,0,0,1.43c0,1-.07,1.87-.07,2.85a15.34,15.34,0,0,1-.08,2,2.81,2.81,0,0,1-.15,1.42,5.27,5.27,0,0,0-.22,1.88,5.67,5.67,0,0,0-.08,1.2,15.82,15.82,0,0,1,.08,1.95c0,.37.07.75.07,1.05s-.07.52-.07.75a.45.45,0,0,0,0,.45c-.08.22-.08.45-.15.67-.3.3-.38.9-1,1a1.33,1.33,0,0,1-1.27-.23c-.45-.45-1-.82-1.5-1.27a2.24,2.24,0,0,1-.53-1.2,29,29,0,0,1-.37-3.68c-.08-.07,0-.22,0-.3l-.08-.07a17.23,17.23,0,0,1,.08-2c0-1.12.07-2.17.15-3.22v-8.18c0-1.42-.08-2.92-.08-4.42s.15-3.08.08-4.58c0-1-.15-2.1-.15-3.22-.08-1.58,0-3.15-.08-4.73,0-1.35-.07-2.77-.15-4.2,0-1.12-.07-2.25-.15-3.37a6,6,0,0,1,.15-.9,7.83,7.83,0,0,0-1.42.15,9.41,9.41,0,0,0-1.5.15c-.6.07-1.13.07-1.73.15s-1.42-.08-2.17-.08h-1.43a3.22,3.22,0,0,0-.82,0,4.13,4.13,0,0,1-1.88-.45,5,5,0,0,1-1.72-1.57c-.38-.45-.38-.75,0-1.28,1-.15,2.25-.3,3.37-.52s2-.45,2.93-.6,1.65-.08,2.4-.15c.37,0,.67-.08,1.05-.08,1.2,0,2.4-.07,3.6-.07a23.93,23.93,0,0,1,3.3-.08c1.8.15,3.52-.22,5.25-.15,1.57,0,3.22,0,4.8.08H158a1.82,1.82,0,0,1,.38.22,1,1,0,0,0,.9.23c.52-.08,1-.15,1.27-.23a1.62,1.62,0,0,1,.68,1.35,4.73,4.73,0,0,0,.45.9C161.8,123.36,162,123.66,161.8,124Zm-6.53.52a3.44,3.44,0,0,1-.52-.45,2,2,0,0,0-.3.6C154.75,124.64,155,124.64,155.27,124.56Z" transform="translate(-12.87 -30.8)"/><path class="cls-2" d="M184.45,147.81c-.08,2.63,0,5.25,0,7.8V163c0,2,0,4-.08,6.08a4.08,4.08,0,0,1-.75,2.77,6.06,6.06,0,0,1-1.2.15c-.3-.37-.52-.75-.75-1a4.16,4.16,0,0,0-1-.45c-.07-.68-.07-1.35-.15-1.95-.22-1.65-.6-3.3-.82-4.88-.08-1,0-1.87-.08-2.77-.22-1.65-.07-3.3-.37-4.95a13.32,13.32,0,0,1-.3-4.88,7.68,7.68,0,0,0,0-1.27c0-.23.15-.45.15-.75h-.15c-.15-.83.37-1.65-.23-2.33-.15,0-.3.08-.45.08a1.19,1.19,0,0,1-.22.15c-.9-.08-1.8-.15-2.55-.23l-.3.3c.07.08.15.08.22.15v.15a2.59,2.59,0,0,0-.82.08,1.25,1.25,0,0,1-.3-.38c-.23.15-.45.23-.68.38a3.34,3.34,0,0,0-.52-.38.74.74,0,0,0,.07.38,1.73,1.73,0,0,1-.6.07,1.17,1.17,0,0,0-.15-.37,1.5,1.5,0,0,1-.22.37c-.15-.15-.23-.3-.38-.45-.22.08-.45.15-.75.23a.26.26,0,0,1-.22-.08c-.9.08-.9.38-1,1.5,0,.75-.07,1.58-.07,2.4,0,.08-.15.15-.15.15v.68c0,.6-.08,1.2-.08,1.8-.14,1-.29,1.95-.37,3-.08.82-.15,1.65-.15,2.47-.15,1.88-.3,3.83-.45,5.78-.07,1.5-.15,3.07-.23,4.65a1.12,1.12,0,0,1-.59,1c-.53.23-.83.08-1.28-.45s-.75-1.12-1.12-1.65a3.73,3.73,0,0,1-.38-1c-.07-.6,0-1.12-.07-1.72s-.23-1.05-.38-1.65c-.07-.38-.07-.75-.15-1.13v-5.1c0-.22-.08-.52-.08-.82h-.07c0-2.7-.08-5.4-.08-8.1h-.07c0-.23-.15-.53-.07-.68a1.8,1.8,0,0,0,.07-1.5,5.87,5.87,0,0,1,0-2.25c0-.22-.07-.45-.07-.67s.29-.23.6-.45h-.68c0-1.65,0-3.3-.07-5.1,0-.83.07-1.73.07-2.63H164c-.08-.07-.08-.22-.15-.3s.15-.15.22-.15c-.53-.67-.15-1.35-.3-2a4.93,4.93,0,0,0,.45-.3c-.22-.08-.3-.08-.37-.15a.27.27,0,0,1-.08-.23,1.14,1.14,0,0,1,.15-.52c.08-.08.15-.15.22-.15-.14-.3-.29-.53-.44-.83.15-.07.22-.07.3-.15a10.93,10.93,0,0,1-.46-3.82c-.07-1.28.08-2.55.08-3.9.67-.15.52-.75.6-1.2,0-.68.38-1,.6-1.58.08-.22.22-.45.37-.75a.94.94,0,0,1,1,.08,10.48,10.48,0,0,0,1.95,1,1.71,1.71,0,0,1,1.2,1.42,37.38,37.38,0,0,1,.52,4c.08,1.13,0,2.18,0,3.3.08,1.65.15,3.3.15,5v8.33c0,.45.23.67.68.52a.88.88,0,0,1,.07.38,7.21,7.21,0,0,0,1.35-.08,4.29,4.29,0,0,0,.45.3l.23-.22a4.12,4.12,0,0,0-.83-.45c1-.15,1.88-.23,2.85-.38a1.11,1.11,0,0,0-.22.3c.15.15.22.38.37.53a1,1,0,0,1,.53-.15l-.08-.08h-.45c.08-.22.08-.45.15-.52,1.05-.08,2.1-.23,3.23-.3a2,2,0,0,1-.53.3h1c.07-.68.07-1.35.15-2,0-.22.07-.45.07-.75,0-1.2.08-2.47.08-3.75.07-1.5.15-3,.22-4.5.08-.07.08-.07.08-.22h.3v-.3h-.3c-.08-.45-.08-.9-.15-1.43a.82.82,0,0,0,.3-.07,2.28,2.28,0,0,1-.23-.68,15.6,15.6,0,0,1-.15-1.8c0-.67.08-1.27.08-1.87v-3a5.73,5.73,0,0,1,.67.15.76.76,0,0,1,.08-.45c-.23,0-.38.07-.53.07a.07.07,0,0,0-.07-.07l.45-.68a1.82,1.82,0,0,1-.15-.15,4.49,4.49,0,0,1,.45-1.2c.37.3.75.45,1.05.68a.86.86,0,0,0,.37.07c.68-.15,1,.3,1.8.6.45.08.68.68.9,1.2a20,20,0,0,1,.23,2c.07,1.42.15,2.77.15,4.12.07,1.05,0,2.18,0,3.23s.15,2.32.15,3.52-.15,2.33-.15,3.53C184.52,142,184.45,145,184.45,147.81Zm-19.8-19.05c-.15-.07-.22-.15-.38-.22s-.15.07-.29.15c.07.15.07.3.14.45A3,3,0,0,0,164.65,128.76Zm-.53-4.87.46.45a1.2,1.2,0,0,0,.59.15c0,.22-.07.45-.07.67.15-.07.3-.07.45-.15a.57.57,0,0,0,.15-.3,1.48,1.48,0,0,0,.6.45c.45.08.75.23.82.75a1,1,0,0,1-.37-.22,4.62,4.62,0,0,1-.3.52,1.83,1.83,0,0,1,.53-.07c0,.07.07.15.14.22.3-.22.53-.37.83-.6-.07-.07-.07-.22-.15-.3l-.45.23a1.37,1.37,0,0,0-.08-.6c-.37-.08-.75-.23-1.19-.3a1,1,0,0,1,.07-.45,3.19,3.19,0,0,0-.53.15c-.07-.15-.14-.23-.22-.38-.07,0-.23.08-.3.08l-.3-.3a3.43,3.43,0,0,1,.08-.38c0-.07-.08-.07-.08-.07a1.11,1.11,0,0,1-.22.3A1.18,1.18,0,0,1,164.12,123.89Zm0,16.5c.15.37.23.6.38.9h.15a2.27,2.27,0,0,0-.22-.83,5.32,5.32,0,0,1,.59.45,1.49,1.49,0,0,0,.23-.37C164.88,140.46,164.5,140.46,164.12,140.39Zm.38-12.53h-.23a2.25,2.25,0,0,1-.07.6,1.86,1.86,0,0,0,.53-.22A1.8,1.8,0,0,0,164.5,127.86Zm-.23,7.28c.23.07.46.22.68.3H165a2.83,2.83,0,0,0-.52-.6A1.15,1.15,0,0,0,164.27,135.14Zm.16-1.73h.22a4.17,4.17,0,0,1,.37-.52c-.07,0-.07-.08-.14-.08s-.15.15-.23.15-.15-.07-.3-.15C164.35,133,164.43,133.26,164.43,133.41Zm.3,9.15a.29.29,0,0,0,.15-.07c-.08-.3-.23-.53-.3-.83a.24.24,0,0,1-.15.08A3.39,3.39,0,0,0,164.73,142.56Zm.82-5-.07-.15c-.31-.15-.6-.23-1-.38a10.39,10.39,0,0,1,.9,1A.63.63,0,0,0,165.55,137.54Zm-.9-15.6c.15.07.3.22.37.22.08.3.23.6.31.9a1.17,1.17,0,0,0,.44-.22,5.4,5.4,0,0,1-.52-.83c.15-.15.3-.22.45-.37h-.45c-.08.07-.08.15-.15.22h-.45Zm.45,16.95h-.45l.68.9a.15.15,0,0,1,.15-.15A3.53,3.53,0,0,0,165.1,138.89Zm.15,14.17c-.08-.22-.15-.52-.3-.9-.07.15-.15.23-.15.3.08.23.15.45.22.68A.27.27,0,0,0,165.25,153.06Zm.08-7.5a1.73,1.73,0,0,0-.16-.6.26.26,0,0,0-.22.08,1.83,1.83,0,0,1,.15.6A.28.28,0,0,0,165.33,145.56ZM165,123.14c.15.37.23.6.31.82h.15c0-.15.07-.37.07-.6A3.55,3.55,0,0,0,165,123.14Zm.38,6.9a8,8,0,0,1,.3-1,1.37,1.37,0,0,1-.6-.07A5.37,5.37,0,0,0,165.4,130Zm.3,3.67a.29.29,0,0,0,.15-.07,6.08,6.08,0,0,1-.23-.83c-.07.23-.22.3-.22.38S165.62,133.56,165.7,133.71Zm-.3,8.1a1.14,1.14,0,0,1,.45.15,1.14,1.14,0,0,0-.15-.45,2,2,0,0,1,.68.3c.07-.07.22-.07.37-.15-.15-.22-.23-.45-.37-.67-.08.15-.23.3-.3.45a1.7,1.7,0,0,0-.46-.08,5.66,5.66,0,0,1,.53-.3c-.07-.07-.07-.15-.15-.22s-.3.07-.45.15A3.59,3.59,0,0,1,165.4,141.81Zm.75,5.4a3.44,3.44,0,0,0-.45-.52c0,.07-.08.07-.08.07a2.88,2.88,0,0,0,.3.68Zm-.45-25.87a6,6,0,0,1,.68.37v.3c.14-.07.29-.07.37-.15l-.45-.9c-.07.08-.15.08-.15.15A2.66,2.66,0,0,1,165.7,121.34Zm.3-1c.08.15.08.3.15.45.15,0,.3-.07.6-.07a7.83,7.83,0,0,1-.45-.68C166.15,120.21,166.08,120.29,166,120.36Zm.75,21.68h-.6c0,.07,0,.07-.07.15l.67.45Zm-.23-3.75a1.06,1.06,0,0,1,.08-.53h-.22a1.28,1.28,0,0,0-.23.75c0,.08.23.23.3.3s.07-.07.15-.07A1.06,1.06,0,0,1,166.52,138.29Zm.15-4.95a1.69,1.69,0,0,0,.6.3.53.53,0,0,0,.3-.08v-.07c-.22-.08-.45-.23-.67-.3a.74.74,0,0,0-.07-.38c-.16,0-.38.08-.53.08C166.45,133.11,166.52,133.26,166.67,133.34Zm.23-3.9a2.16,2.16,0,0,1,.08-.75c-.15-.08-.23-.08-.31-.15C166.38,128.91,166.45,129.21,166.9,129.44Zm-.3-6.9v.07a1.47,1.47,0,0,0,.45.3l.3-.3C167.05,122.61,166.83,122.54,166.6,122.54Zm.07,11.47a5.06,5.06,0,0,0,.16.9,2.32,2.32,0,0,1,.29-.37,5.18,5.18,0,0,1-.29-.6C166.75,133.94,166.67,133.94,166.67,134Zm.75,7.65a.48.48,0,0,1-.3-.07c-.07-.15-.22-.23-.22-.3h-.15V142A2.34,2.34,0,0,0,167.42,141.66Zm.53-2.77-.07-.08c-.08,0-.15,0-.15.08-.16.22-.38.22-.68.22s-.38.15-.22.45c.07,0,.15.08.29.08s.08-.15.15-.23.15.08.3.08C167.73,139.26,167.8,139.11,168,138.89Zm-1.12-.23c0,.08.07.15.22.38a6.1,6.1,0,0,0,.07-1c.23,0,.38-.08.68-.08-.15-.15-.23-.22-.3-.22a6.6,6.6,0,0,0-.67.22ZM180,123.74v.67l.6.23a.62.62,0,0,0,.07-.23l-.37-.75a4,4,0,0,1,.3-.9C180,122.91,179.87,123.21,180,123.74Zm1,5.17a2.27,2.27,0,0,1-.37-.6,3.47,3.47,0,0,1-.53.23v.52C180.32,129,180.55,129,180.92,128.91Zm.38,18.9c-.15,0-.3-.07-.53-.07a3.19,3.19,0,0,0,.15-.53c0-.07-.15-.22-.3-.37a2.13,2.13,0,0,1-.15.75c.08.07.08.22.15.3a2.25,2.25,0,0,0,.68.07Zm-.15-17.32c.07-.6-.08-.83-.6-.75a3.45,3.45,0,0,0,.3.52v.3A.49.49,0,0,0,181.15,130.49Zm0-7c-.23-.07-.3-.07-.53-.15l.38.38a3.43,3.43,0,0,0-.08.9,1.2,1.2,0,0,0,.45.07,5.11,5.11,0,0,1,.68-.3V124a.9.9,0,0,0-.45.08c0-.15,0-.23.07-.3h.23a.08.08,0,0,1-.08-.08,2.56,2.56,0,0,0,.53-.3,16.21,16.21,0,0,0-1.35-1l-.08.07C181,122.76,181.07,123.14,181.15,123.51Zm.52,1.95.38-.37c-.08-.08-.08-.15-.15-.3a2.38,2.38,0,0,1-.68.15v.3a1.11,1.11,0,0,0,.3.22l-.45.23c.15.22.23.37.3.45a1.53,1.53,0,0,0,.6-.08A4.74,4.74,0,0,1,181.67,125.46Zm-.6,5.85c.3-.15.53-.3.9-.45-.22-.15-.37-.3-.45-.3A7.77,7.77,0,0,1,181.07,131.31Zm1.35,3.68v-.15H182a2.19,2.19,0,0,1,.15-.53c-.22-.07-.45-.15-.75-.22a3.45,3.45,0,0,1,.3.52,2.19,2.19,0,0,0-.3.38,1.55,1.55,0,0,0,.23.15A4.4,4.4,0,0,1,182.42,135Zm.83-11.48h-.38c-.07,0-.15-.07-.22-.15l-.23.45a3.31,3.31,0,0,0,.53.53A4,4,0,0,0,183.25,123.51Z" transform="translate(-12.87 -30.8)"/><path class="cls-2" d="M197.12,164.24c.45.15.9.3,1.43.52,1.57.6,2.92-.15,4.35-.67.9-.3,1.72-.6,2.55-.9a3.7,3.7,0,0,1,1-.08,1.2,1.2,0,0,0-.07.45c0,.08.07.15.15.23a3.37,3.37,0,0,1-.23.67c.38.38.68.75,1,1a.94.94,0,0,1,.15,1.13.9.9,0,0,0-.08.45,2,2,0,0,1-1.2,1.72,10.53,10.53,0,0,1-3.37.9,2.77,2.77,0,0,0-1.5.45,2.75,2.75,0,0,1-1.13.15,13.82,13.82,0,0,1-1.8-.22,9.76,9.76,0,0,1-3.82-1.35,4.14,4.14,0,0,0-.6-.3,5.91,5.91,0,0,0-.68-.38c-.15-.22-.37-.45-.6-.75-.15-.07-.22-.3-.37-.37a14.63,14.63,0,0,1-1.73-2.48,8.61,8.61,0,0,1-.82-2.7,9.91,9.91,0,0,1-.45-3.6c.07-1.2.15-2.47.22-3.67,0-.38-.07-.75-.07-1.13,0-1.27.07-2.47.07-3.75.08-2.17.08-4.27.15-6.37.08-1.58.15-3.08.23-4.58l.45-5.85c.07-1.27.15-2.55.3-3.82.22-2,.45-4,.75-5.93.07-.6.22-1.2.3-1.87a1.9,1.9,0,0,1,1.65-1.35c.45-.08,1-.08,1.42-.15a17.52,17.52,0,0,1,2-.23c1-.07,1.95-.07,2.92-.07.23,0,.53-.08.75-.08a16.84,16.84,0,0,1,1.88,0c.9.08,1.8.3,2.7.38l.9.22c.15.08.37.15.37.3.23.53.68.45,1,.53s.68.15,1.13.22c-.08.23-.08.38-.15.53a.08.08,0,0,1-.08-.08l-.67.68.07.07a2,2,0,0,1-.67.15.46.46,0,0,1-.3-.07v.15a3.45,3.45,0,0,1-.83.15,16.17,16.17,0,0,0-2.55.37,7.3,7.3,0,0,1-1.27.3,3.86,3.86,0,0,1-.38-.07,11.74,11.74,0,0,1-2.7.15c-.9.15-1.65.3-2.4.45a.45.45,0,0,0-.45.6,9.26,9.26,0,0,1-.3,2.85c-.07.45-.07.9-.15,1.35s-.07.82-.15,1.27c0,.23.15.45.15.6a9.49,9.49,0,0,1,.08,1.5c.07.75.15,1.5.15,2.33,0,.37-.15.75-.15,1.12,0,.53.07,1,.07,1.58,0,.15-.07.3,0,.45v3.22c0,.3-.07.68-.07.83-.38.6-.6,0-.9,0,.07.67.6.75,1,.9a1,1,0,0,0,.45.07c1.12-.15,2.32-.45,3.45-.52a10.32,10.32,0,0,1,2.17.07c1,.08,1.88.15,2.78.3l2.1.45a.77.77,0,0,1-.3,1,2.89,2.89,0,0,0-.53.82l-.45.45c0,.08.08.23.08.3v.08c-.53.37-.83,1-1.58,1.2s-1.42,0-2.17.22a12.92,12.92,0,0,1-4.8.08h-1.28a2.61,2.61,0,0,0-.52.45.59.59,0,0,1,.07.3h-.07c0,.6.07,1.12.07,1.72,0,.08.08.15.08.23h-.08c.08,2.17.15,4.35.23,6.67.37.3.22.83.15,1.35.07.08.07.15.15.23v2.1H196a1,1,0,0,0,.15.45,21.67,21.67,0,0,0,.3,2.25,7.16,7.16,0,0,0,.37,1.2c.08.07,0,.22,0,.22C197,164.16,197.05,164.24,197.12,164.24Zm-3.52-22.5a7.07,7.07,0,0,1-.45-.75.53.53,0,0,0-.08.3,3.44,3.44,0,0,0,.45.52Zm.15,21.37.37.38.08-.08a3.78,3.78,0,0,0,.52.23.27.27,0,0,1,.08-.23.41.41,0,0,0-.23-.07c-.15-.08-.15-.23-.22-.3a.3.3,0,0,1,.07-.23C194.2,162.89,194,163,193.75,163.11Zm2.77.83v-.23c-.15-.15-.3-.22-.45-.37-.07.22-.15.45-.22.75C196.07,164,196.3,164,196.52,163.94Z" transform="translate(-12.87 -30.8)"/><path class="cls-2" d="M235,170.09a3.7,3.7,0,0,0-.08,1,2.76,2.76,0,0,1-.37.08c-.6-.15-1.2-.23-1.8-.38a8.1,8.1,0,0,1-4.05-3c-1-1.27-1.88-2.62-2.85-4a45.85,45.85,0,0,1-3.3-5.18c-.75-1.42-1.8-2.77-2.7-4.2-.6-1-1.13-1.95-1.73-2.92-.07-.15-.3-.23-.45-.45a1.64,1.64,0,0,0-.22.75c-.08,1.42-.15,2.92-.23,4.42a11.91,11.91,0,0,0-.07,2.33c0,1.42.15,2.85.15,4.35s-.15,3.22-.3,4.8a1.46,1.46,0,0,1-.15.52c-.15.53-.23,1-.38,1.43-.07-.15-.22-.38-.3-.53-.82.08-.45.9-.9,1.28a4.1,4.1,0,0,1-1.35-.08,1.24,1.24,0,0,1-.82-.67,5.35,5.35,0,0,1-.53-2.85c0-1.13-.07-2.33-.15-3.45,0-1.8-.07-3.68-.15-5.55,0-.83.15-1.65.08-2.55s-.15-1.88-.15-2.78c0-1.27.07-2.47.15-3.75,0-1.05-.15-2.1-.15-3.22s.15-2.25.22-3.38c0-.75.08-1.42.08-2.17.07-2.55.07-5.18.15-7.73,0-1.57,0-3.07.07-4.65.08-1,.3-2.17.38-3.3s.15-2.17.22-3.22a4,4,0,0,1,.15-.9,6.21,6.21,0,0,1,3.53,1.65c.15-.08.37-.08.52-.15A6.72,6.72,0,0,1,222,121c.83.15,1.73.38,2.55.6a6.84,6.84,0,0,1,3.08,2c.22.38.3.9.52,1.28a1.76,1.76,0,0,0,.38.6,1.66,1.66,0,0,1,.82,1.65c0,.45.15.9.15,1.35a10.88,10.88,0,0,1-.22,3.45c-.15.37,0,.75-.08,1.12-.22.68-.52,1.35-.75,2.1s-.3,1.35-.52,2a12.29,12.29,0,0,1-.6,1.42,9.41,9.41,0,0,1-.45.9c-.3.53-.68,1.05-1,1.5s-.52,1.13-.82,1.65c-.08.15-.15.23-.23.38s-.22.22-.37.37-.08.23-.23.3c-.6.38-1.27.83-1.87,1.28a9.34,9.34,0,0,0-1.28,1.2c-.22.22-.52.45-.82.75a1.11,1.11,0,0,1,.3.22,17.56,17.56,0,0,1,1.72,1.73c.6.75,1.05,1.57,1.58,2.32.75,1.13,1.5,2.18,2.17,3.3a4.76,4.76,0,0,1,.45,1.13c.38.6.83,1.05,1.2,1.65.23.3.6.52.53,1.12-.08.3.22.68.45,1a36.83,36.83,0,0,0,2,3.22c.6.9,1.42,1.8,2.1,2.7.37.6.75,1.28,1.12,1.88s.68,1,1,1.5A2.08,2.08,0,0,1,235,170.09Zm-14.1-31.65c1-1.35,1.87-2.85,2.85-4.2a7.17,7.17,0,0,0,1.2-3.15,20.12,20.12,0,0,0,.22-2.18,3.39,3.39,0,0,0-.15-2,3.29,3.29,0,0,0-.67-1.35,3.18,3.18,0,0,0-3.38-.82,10.26,10.26,0,0,1-1.42.3,13.88,13.88,0,0,0-1.58.52c-.52.15-.52.68-.6,1.2-.07.83-.3,1.65-.3,2.48-.07,1.05.08,2.17,0,3.3s-.15,2-.07,3.07a38,38,0,0,0-.08,4.13c.08,1,.08,2,.15,3a1.28,1.28,0,0,0,.23.45c.15-.23.3-.3.37-.45C218.8,141.36,219.85,139.94,220.9,138.44Z" transform="translate(-12.87 -30.8)"/><path class="cls-2" d="M280.9,168.36a.25.25,0,0,0-.15-.07,3.75,3.75,0,0,1-.83.75c-.82.37-1.65.67-2.47,1.05a9.08,9.08,0,0,1-3.23.67c-.67.08-1.42.23-2,.3a2.38,2.38,0,0,1-1.05-.22c-.45-.23-.75,0-1.13-.08a.9.9,0,0,0-.45.08c-.6,0-1.27-.08-1.8-.08a14.8,14.8,0,0,0-1.72-.07,4,4,0,0,1-1-.15v.15h-.82a17.18,17.18,0,0,0-1.8-.75,9.54,9.54,0,0,1-2.85-1.58,3.46,3.46,0,0,1-1.43-3.3c.08-.15-.07-.37-.07-.6a2.49,2.49,0,0,0,.15-.6c0-.75-.08-1.42-.08-2.25-.07-1.2-.07-2.47-.15-3.82,0-.45-.07-.9-.07-1.43a3.7,3.7,0,0,1-.08-1,12.08,12.08,0,0,0,0-2.33,27.58,27.58,0,0,1,.08-3.52c0-.75-.23-1.5-.23-2.25,0-1,0-2.1.08-3.23,0-.9.07-1.8.15-2.77s.15-1.95.22-3a14.23,14.23,0,0,1-.07-1.88c.07-1,.22-1.87.3-2.85v-2.1c0-.9,0-1.8.07-2.7.08-1.2.08-2.4.15-3.52a3.46,3.46,0,0,1,.6-2,1.27,1.27,0,0,1,1.43-.22.76.76,0,0,1,.45.15c.15.45.3,1,.52,1.57a16.43,16.43,0,0,1,.23,2,6.63,6.63,0,0,0,.37,1.2,4.21,4.21,0,0,1,.15.9,7.75,7.75,0,0,1,.15,1.35v1.73c0,.52.08,1,.08,1.5,0,.67-.08,1.42-.08,2.1a4.75,4.75,0,0,0,.08,1.8,5.79,5.79,0,0,1-.08,1c0,.67.08,1.42.15,2.1,0,.9.08,1.87.08,2.85,0,.82.07,1.72,0,2.55-.08,1.2-.23,2.47-.3,3.67a5.3,5.3,0,0,0,.15,1.58c0,.75,0,1.5.07,2.32a5.71,5.71,0,0,0,.08,1.13v.67c.6.3.3.9.3,1.35.07.83.07,1.58.07,2.33v1.72c.23.75.38,1.5.6,2.25a11.32,11.32,0,0,0,.75,1.65,4,4,0,0,1,.53.83c.15.45.6.6,1.12.67a10.29,10.29,0,0,0,1.65.3c1.43.08,2.7-.07,4.05-.07.53,0,.9.07,1.43.07s1.12-.15,1.65-.15,1,.08,1.42.08h.38a4.78,4.78,0,0,1,2.7-.08c.6.15,1.42.75,1.42,1.43A1.54,1.54,0,0,0,280.9,168.36Zm-18.45-2.7c-.23-.22-.38-.37-.6-.6v.68a1,1,0,0,1,.45.15C262.37,165.81,262.37,165.74,262.45,165.66Z" transform="translate(-12.87 -30.8)"/><path class="cls-2" d="M290.65,164.24c.45.15.9.3,1.42.52,1.58.6,2.93-.15,4.35-.67.9-.3,1.73-.6,2.55-.9a3.74,3.74,0,0,1,1-.08,1.06,1.06,0,0,0-.08.45c0,.08.08.15.15.23a3.47,3.47,0,0,1-.22.67c.37.38.67.75,1,1a.92.92,0,0,1,.15,1.13,1,1,0,0,0-.07.45,2.05,2.05,0,0,1-1.2,1.72,10.66,10.66,0,0,1-3.38.9,2.8,2.8,0,0,0-1.5.45,2.72,2.72,0,0,1-1.12.15,13.82,13.82,0,0,1-1.8-.22,9.86,9.86,0,0,1-3.83-1.35,3.69,3.69,0,0,0-.6-.3,5,5,0,0,0-.67-.38c-.15-.22-.38-.45-.6-.75-.15-.07-.23-.3-.38-.37a14.58,14.58,0,0,1-1.72-2.48,8.63,8.63,0,0,1-.83-2.7,9.91,9.91,0,0,1-.45-3.6c.08-1.2.15-2.47.23-3.67,0-.38-.08-.75-.08-1.13,0-1.27.08-2.47.08-3.75.07-2.17.07-4.27.15-6.37.07-1.58.15-3.08.22-4.58l.45-5.85c.08-1.27.15-2.55.3-3.82.23-2,.45-4,.75-5.93.08-.6.23-1.2.3-1.87a1.9,1.9,0,0,1,1.65-1.35c.45-.08,1-.08,1.43-.15a17.35,17.35,0,0,1,2-.23c1-.07,2-.07,2.93-.07.22,0,.52-.08.75-.08a16.67,16.67,0,0,1,1.87,0c.9.08,1.8.3,2.7.38l.9.22c.15.08.38.15.38.3.22.53.67.45,1.05.53s.67.15,1.12.22a3.19,3.19,0,0,1-.15.53.07.07,0,0,1-.07-.08l-.68.68.08.07a2.08,2.08,0,0,1-.68.15.49.49,0,0,1-.3-.07v.15a3.38,3.38,0,0,1-.82.15,16,16,0,0,0-2.55.37,7.41,7.41,0,0,1-1.28.3,3.1,3.1,0,0,1-.37-.07,11.77,11.77,0,0,1-2.7.15c-.9.15-1.65.3-2.4.45a.44.44,0,0,0-.45.6,9.26,9.26,0,0,1-.3,2.85c-.08.45-.08.9-.15,1.35s-.08.82-.15,1.27c0,.23.15.45.15.6a10.83,10.83,0,0,1,.07,1.5,21.39,21.39,0,0,1,.15,2.33c0,.37-.15.75-.15,1.12,0,.53.08,1,.08,1.58,0,.15-.08.3,0,.45v3.22c0,.3-.08.68-.08.83-.37.6-.6,0-.9,0,.08.67.6.75,1.05.9a1,1,0,0,0,.45.07c1.13-.15,2.33-.45,3.45-.52a10.44,10.44,0,0,1,2.18.07c1,.08,1.87.15,2.77.3l2.1.45a.76.76,0,0,1-.3,1,3.1,3.1,0,0,0-.52.82l-.45.45c0,.08.07.23.07.3v.08c-.52.37-.82,1-1.57,1.2s-1.43,0-2.18.22a12.91,12.91,0,0,1-4.8.08H289.3a2.65,2.65,0,0,0-.53.45.53.53,0,0,1,.08.3h-.08c0,.6.08,1.12.08,1.72,0,.08.07.15.07.23h-.07c.07,2.17.15,4.35.22,6.67.38.3.23.83.15,1.35.08.08.08.15.15.23v2.1h.15a1.14,1.14,0,0,0,.15.45c.08.75.15,1.5.3,2.25a8.3,8.3,0,0,0,.38,1.2c.07.07,0,.22,0,.22C290.5,164.16,290.57,164.24,290.65,164.24Zm-3.53-22.5a7.07,7.07,0,0,1-.45-.75.59.59,0,0,0-.07.3,3.44,3.44,0,0,0,.45.52Zm.15,21.37.38.38.07-.08a3.47,3.47,0,0,0,.53.23.3.3,0,0,1,.07-.23.37.37,0,0,0-.22-.07c-.15-.08-.15-.23-.23-.3a.27.27,0,0,1,.08-.23C287.72,162.89,287.5,163,287.27,163.11Zm2.78.83v-.23c-.15-.15-.3-.22-.45-.37-.08.22-.15.45-.23.75C289.6,164,289.82,164,290.05,163.94Z" transform="translate(-12.87 -30.8)"/><path class="cls-2" d="M308.57,137.91v-.15a4.54,4.54,0,0,0-.52-.3,1,1,0,0,0,.45-.07,1.11,1.11,0,0,0,.22-.3,3,3,0,0,0-.45-.3c.08.22.08.3.15.37h-.3c.83-5.85,2.1-11.55,3.45-17.32.38,0,.53-.23.6-.6a.53.53,0,0,1,.68-.53.91.91,0,0,1,.67.53c.23.3.3.67.53,1.05s.52.6.82,1l.15-.15a22.31,22.31,0,0,1,1,2.33,19.5,19.5,0,0,1,.52,2.1c.3,1,.6,2.1.9,3.07.08.23.15.38.23.6.22.9.37,1.88.6,2.78s.45,1.57.67,2.32c.23,1,.45,1.88.68,2.85l.45,2c.15.6.22,1.12.37,1.72a16.48,16.48,0,0,1,.38,1.8,14.38,14.38,0,0,1,.37,1.8l.45,2.48c.08.82.08,1.65.23,2.47s.37,1.65.52,2.48.38,1.65.53,2.47c.07.3.22.53.3.83.07.67.15,1.35.22,2,0,.15.15.3.23.53.15.67.3,1.42.45,2.1s.15,1.2.22,1.8c.08.45.15.9.23,1.27.07,1,.07,2.1.22,3.15a12.18,12.18,0,0,1,.08,3.3.66.66,0,0,1-.23.45v.83c0,.22-.3.45-.67.45a2.27,2.27,0,0,1-1.88-1.58c-.3-.67-.67-1.35-.9-2-.37-1-.75-2.1-1.05-3.23s-.52-2.1-.75-3.22c-.37-1.88-.75-3.83-1.12-5.78a12.4,12.4,0,0,0-.3-1.57c-.08-.15-.23-.38-.38-.6a.22.22,0,0,0,.15-.08c-.07-.07-.07-.15-.15-.22a.46.46,0,0,1-.3.07,1,1,0,0,0-.07.45c-.38.08-.75.23-1.13.3-.15,0-.3-.15-.45-.3a1.38,1.38,0,0,0,.15.38l-2.92.22a1.5,1.5,0,0,1-1.65.23c-.6.22-.68.75-.83,1.27-.22.9-.07,1.88-.22,2.78-.15.75-.38,1.5-.53,2.25a.28.28,0,0,0-.07.22c0,.23.07.38.07.6-.15.9-.22,1.88-.37,2.78a6.91,6.91,0,0,1-.15,1.27,16.83,16.83,0,0,1,0,1.88c-.08.75-.15,1.5-.3,2.25,0,.15-.08.37-.08.6v.07c-.07.75-.67.9-1.27,1.05a1.71,1.71,0,0,1-.53-.22.87.87,0,0,0-.82-.38,4.64,4.64,0,0,1-1.43-.9c-.22-.22-.22-.75-.22-1.12a7.76,7.76,0,0,1-.15-1.28,6.19,6.19,0,0,1,0-1.72c.07-1.43.22-2.85.37-4.28.08-.67.3-1.35.38-2.1l.45-2.92c.07-.45.15-.9.22-1.43.23-1,.38-2,.53-2.92.15-1.13.3-2.25.37-3.38a15.83,15.83,0,0,0,.15-2.62c.08-.53.23-1.05.3-1.5v-.15a5.42,5.42,0,0,1,.23-2.18c.07-.45.07-.9.15-1.35a14.91,14.91,0,0,0,.3-1.87c.07-.38.22-.75.3-1.13A2,2,0,0,1,308.57,137.91Zm-.3.9a3.34,3.34,0,0,0,.38-.52,3.19,3.19,0,0,0-.53.15C308.2,138.59,308.2,138.66,308.27,138.81Zm5.48-10.27c-.08.07-.23.15-.23.3-.07.45-.15.9-.22,1.35a16.83,16.83,0,0,1-.15,1.87,5.32,5.32,0,0,1-.15,1.05c-.08.6-.23,1.2-.3,1.88a21.81,21.81,0,0,0-.08,2.32,15.53,15.53,0,0,0-.3,3.23v.07a16.4,16.4,0,0,0-.37,1.73v1.42c0,.3-.15.6-.15.9a2.41,2.41,0,0,1-.15,1.65c-.08.83-.15,1.43-.23,2.1-.07.38-.22.83-.3,1.28,0,.15.08.37.3.3.9-.23,1.73-.45,2.55-.68a4,4,0,0,1,.9-.15,15.6,15.6,0,0,1,1.88-.37v.07a1.11,1.11,0,0,1,.22.3,3.38,3.38,0,0,0,0-.9c-.07-.75-.22-1.57-.37-2.4-.15-1.05-.23-2.1-.38-3.15a8.26,8.26,0,0,0-.37-1.87,24.81,24.81,0,0,1-.75-4.73c-.15-1-.3-1.87-.45-2.85s-.38-2.17-.6-3.3c-.08-.45-.08-.9-.15-1.35A.23.23,0,0,1,313.75,128.54Zm2.1,24.9a1.77,1.77,0,0,0,.52.07,2,2,0,0,1,.15-.6A2.19,2.19,0,0,1,315.85,153.44Zm.75-2.1c-.15,0-.3-.08-.53-.08v.23c.3,0,.53.07.83.07a.48.48,0,0,0,.07-.3A.62.62,0,0,1,316.6,151.34Z" transform="translate(-12.87 -30.8)"/><path class="cls-2" d="M345.77,123.66c-.45.08-.9.08-1.35.15-.9.15-1.8.38-2.7.45s-2-.15-3-.15-1.8-.07-2.62-.15-1.43.08-2.18.08a.81.81,0,0,0-.9.82c-.07,1-.15,2.1-.15,3.15,0,.83.08,1.65.15,2.48v1.65c.08.52.15,1.05.23,1.57a10.83,10.83,0,0,1,.07,1.5c0,.53-.07,1.13-.07,1.65,0,.3-.08.6-.08.9.08.08.3.3.38.3,1.72-.15,3.37-.22,5.1-.3a10.94,10.94,0,0,1,3.45.3l1.12.45a.24.24,0,0,1,.15.08c.3.45.6.82.83,1.2s.45.67.67,1v.15a10.67,10.67,0,0,1-1.35.68,12,12,0,0,1-1.72.45c-.38.07-.83.22-1.2.3l-2,.45c-.07.07-.22,0-.37,0V143h-.83a6.47,6.47,0,0,1-2.7.08,5.71,5.71,0,0,1-1.2-.08c-.07,0-.15.08-.22.08a16.63,16.63,0,0,1,.3,1.65c.07.82.07,1.65.15,2.47s.07,1.58.07,2.33c0,.45-.15.9-.15,1.35a2.59,2.59,0,0,0,.08.82c0,.38.07.75.07,1.13,0,1-.07,2.1-.07,3.07.07.53.15,1,.22,1.5a7.65,7.65,0,0,1,.08,1.35c-.08.53-.08,1.05-.15,1.58a10.17,10.17,0,0,0-.23,1.42c0,.6.15,1.13.15,1.73s-.22,1-.3,1.57-.22,1-.3,1.5a4.22,4.22,0,0,1-.75,2.33c-.22.3-.67.37-1.05.6h-.07c-.53.45-.83.07-1.2-.23a4.47,4.47,0,0,1-1-.67,2.32,2.32,0,0,1-.37-1.2,7.82,7.82,0,0,0-.15-1.8c-.08-1.28-.15-2.48-.15-3.75-.08-1.05-.15-2.1-.15-3.23s.07-2.4.07-3.6c0-1,0-2,.08-3s.07-1.95.07-2.92v-5.48c-.07-.75-.15-1.42-.22-2.17a14.27,14.27,0,0,0,0-1.73c-.08-.82-.15-1.57-.23-2.4-.07-1.2-.07-2.4-.15-3.52V129c0-1.05,0-2,.08-3s.07-1.65.07-2.48c.08-1.2.08-2.32.23-3.45a8.18,8.18,0,0,1,.3-1.35c.37.15.67.3,1,.45a.55.55,0,0,0,.38.08l2.4-.23a34,34,0,0,1,3.9-.3c.75,0,1.57.15,2.4.23a11.79,11.79,0,0,0,1.57.07l1.35.23a.55.55,0,0,0,.38-.08c.75-.3,1.42.15,2.1.3a3,3,0,0,1,1.35,1c.22.07.15.52.15.82a1.44,1.44,0,0,0,.22.75c.23.45.83.83.6,1.58C346.15,123.59,346,123.66,345.77,123.66Zm-15.45,43.88.15-.15a1.69,1.69,0,0,0-.07-.38.42.42,0,0,0-.3.08v.37C330.17,167.46,330.25,167.54,330.32,167.54Zm1.65-2.25a2.09,2.09,0,0,0-.15-.6h-.22c0,.15-.08.37-.08.6a.26.26,0,0,0,.08.22c-.23.15-.38.23-.6.38.3.15.37.22.45.22l-.08.08c-.15,0-.3-.08-.45-.08s0,.08-.07.08c.15.15.37.22.52.37v-.15h.38c.07-.3.22-.67.3-1A.07.07,0,0,0,332,165.29Zm4.43-22.65a4.78,4.78,0,0,1,.6-.23v-.15a.51.51,0,0,1-.3-.15c-.15.08-.23.15-.38.23.08,0,.15.07.23.15h-.23A.24.24,0,0,1,336.4,142.64Zm4.27-19.73a.57.57,0,0,1-.3-.15v.53a.3.3,0,0,0,.23.07A1,1,0,0,0,340.67,122.91Zm.53-.75h-.15c-.08.23-.15.38-.23.6a.24.24,0,0,0,.15.08,3.92,3.92,0,0,1,.38-.3,3.47,3.47,0,0,1,.22.67c.23-.3.38-.45.53-.67a.08.08,0,0,1-.08-.08,1.93,1.93,0,0,0-.67.08C341.27,122.39,341.27,122.31,341.2,122.16Z" transform="translate(-12.87 -30.8)"/><path class="cls-3" d="M35.25,200.87H29.67l-1.06,2.93H26.84l4.7-12.45H33.4l4.68,12.45H36.31Zm-.47-1.28-2.32-6.41-2.32,6.41Z" transform="translate(-12.87 -30.8)"/><path class="cls-3" d="M54.2,203.8l-3.31-5.18H49.11v5.18H47.47V191.11h4.18a4.52,4.52,0,0,1,3.24,1A3.61,3.61,0,0,1,56,194.89a3.53,3.53,0,0,1-.87,2.49,4,4,0,0,1-2.5,1.18l3.46,5.24Zm-5.09-6.37H51.5c1.86,0,2.79-.82,2.79-2.45s-.93-2.45-2.79-2.45H49.11Z" transform="translate(-12.87 -30.8)"/><path class="cls-3" d="M73.48,191.11v1.33H69.9V203.8H68.26V192.44H64.68v-1.33Z" transform="translate(-12.87 -30.8)"/><path class="cls-3" d="M104.19,203.8l-2.77-3.06a3.24,3.24,0,0,1-.11.72,2.84,2.84,0,0,1-1.06,1.78,3.25,3.25,0,0,1-2.09.69,4,4,0,0,1-2-.48,3.39,3.39,0,0,1-1.35-1.33,4.3,4.3,0,0,1,0-3.91A3.05,3.05,0,0,1,96,197a3.28,3.28,0,0,1,1.64-.42l.4,0-.27-.34a5.81,5.81,0,0,1-.77-1.16,3,3,0,0,1-.26-1.29,2.73,2.73,0,0,1,.37-1.37,2.8,2.8,0,0,1,1.11-1,3.72,3.72,0,0,1,1.76-.39,3.32,3.32,0,0,1,2.37.77,3.06,3.06,0,0,1,1,1.94,3.22,3.22,0,0,1,.11.81,1.65,1.65,0,0,1,0,.27h-1.55a.91.91,0,0,0,0-.29c0-.12,0-.2,0-.25a2,2,0,0,0-.5-1.39,1.8,1.8,0,0,0-1.35-.5,1.68,1.68,0,0,0-1.25.47,1.55,1.55,0,0,0-.46,1.14,2,2,0,0,0,.21.95,5.46,5.46,0,0,0,.67.94l6.73,8Zm-4.4-1.91a2.16,2.16,0,0,0,.64-1.62,2.25,2.25,0,0,0-.36-1.24,2.65,2.65,0,0,0-.94-.88,2.35,2.35,0,0,0-1.2-.32,2.07,2.07,0,0,0-1.54.59,2.28,2.28,0,0,0-.61,1.69,2.32,2.32,0,0,0,.69,1.77,2.36,2.36,0,0,0,1.69.64A2.23,2.23,0,0,0,99.79,201.89Z" transform="translate(-12.87 -30.8)"/><path class="cls-3" d="M142.84,191.11l-3.23,12.69h-2l-2.94-10.37-2.93,10.37h-2l-3.24-12.69h1.82l2.43,10.78,3-10.78h1.82l3,10.75L141,191.11Z" transform="translate(-12.87 -30.8)"/><path class="cls-3" d="M154.14,192.44v4.34H159V198h-4.82v4.43h5.36v1.33h-7V191.11h7v1.33Z" transform="translate(-12.87 -30.8)"/><path class="cls-3" d="M177.44,198.35a3,3,0,0,1,.73,2,3.19,3.19,0,0,1-1,2.49,4.47,4.47,0,0,1-3.05.93h-4.72V191.11H174a4.31,4.31,0,0,1,2.9.85,2.89,2.89,0,0,1,1,2.32,2.93,2.93,0,0,1-.65,2,3,3,0,0,1-1.69,1A3.3,3.3,0,0,1,177.44,198.35ZM171,196.67h2.73a2.74,2.74,0,0,0,1.85-.55,2,2,0,0,0,.64-1.57,1.93,1.93,0,0,0-.63-1.53,2.85,2.85,0,0,0-1.93-.56H171Zm4.78,5.17a2.07,2.07,0,0,0,.71-1.67,2,2,0,0,0-.73-1.67,3.11,3.11,0,0,0-2-.6H171v4.53h2.77A3,3,0,0,0,175.77,201.84Z" transform="translate(-12.87 -30.8)"/><path class="cls-3" d="M209.6,192.13a5.84,5.84,0,0,1,2.09,3.12H210a4.29,4.29,0,0,0-1.57-2,4.58,4.58,0,0,0-2.64-.74,4.07,4.07,0,0,0-3.78,2.33,5.9,5.9,0,0,0-.56,2.64,5.83,5.83,0,0,0,.56,2.61,4.22,4.22,0,0,0,1.55,1.71,4.13,4.13,0,0,0,2.23.61,4.51,4.51,0,0,0,2.64-.75,4.29,4.29,0,0,0,1.57-2h1.73a5.9,5.9,0,0,1-2.09,3.13,6.21,6.21,0,0,1-3.84,1.14,6,6,0,0,1-3.15-.82,5.68,5.68,0,0,1-2.13-2.29,7.08,7.08,0,0,1-.76-3.33,7.21,7.21,0,0,1,.76-3.37,5.7,5.7,0,0,1,2.13-2.3,6.11,6.11,0,0,1,3.15-.81A6.21,6.21,0,0,1,209.6,192.13Z" transform="translate(-12.87 -30.8)"/><path class="cls-3" d="M228.35,203.8,225,198.62h-1.78v5.18h-1.64V191.11h4.18a4.52,4.52,0,0,1,3.24,1,3.61,3.61,0,0,1,1.08,2.74,3.53,3.53,0,0,1-.87,2.49,4,4,0,0,1-2.5,1.18l3.46,5.24Zm-5.09-6.37h2.39c1.86,0,2.79-.82,2.79-2.45s-.93-2.45-2.79-2.45h-2.39Z" transform="translate(-12.87 -30.8)"/><path class="cls-3" d="M241.49,192.44v4.34h4.83V198h-4.83v4.43h5.37v1.33h-7V191.11h7v1.33Z" transform="translate(-12.87 -30.8)"/><path class="cls-3" d="M264.14,200.87h-5.58l-1.06,2.93h-1.77l4.7-12.45h1.85L267,203.8H265.2Zm-.47-1.28-2.32-6.41L259,199.59Z" transform="translate(-12.87 -30.8)"/><path class="cls-3" d="M284.13,191.11v1.33h-3.58V203.8h-1.63V192.44h-3.59v-1.33Z" transform="translate(-12.87 -30.8)"/><path class="cls-3" d="M295.13,191.11V203.8H293.5V191.11Z" transform="translate(-12.87 -30.8)"/><path class="cls-3" d="M306.33,191.11,310.2,202l3.92-10.87h1.78l-4.66,12.69h-2.07l-4.64-12.69Z" transform="translate(-12.87 -30.8)"/><path class="cls-3" d="M326.94,192.44v4.34h4.82V198h-4.82v4.43h5.36v1.33h-7V191.11h7v1.33Z" transform="translate(-12.87 -30.8)"/></svg>